<svg t="1670557835959" class="icon" viewBox="0 0 1024 1024" version="1.1" xmlns="http://www.w3.org/2000/svg" p-id="6391" width="200" height="200"><path d="M512 94.479258c57.676291 0 119.06543 43.462358 169.221086 64.261086 51.99004 21.558252 117.973616 21.147974 157.153484 60.331232 39.183258 39.183258 38.77298 111.558358 60.334622 163.551788 20.795338 50.155656 64.257695 105.14649 64.257695 162.822782s-43.462358 112.673907-64.257695 162.822781c-21.561642 51.99343-21.151364 124.371921-60.334622 163.555179-39.179868 39.183258-111.558358 38.77298-163.551789 60.331232-50.152265 20.798728-105.14649 64.257695-162.822781 64.257695s-112.670517-43.458967-162.822781-64.254305c-51.99343-21.565033-124.371921-21.151364-163.551789-60.334622-39.183258-39.183258-38.77298-111.561748-60.334622-163.551788C104.49547 658.116662 61.033113 603.125828 61.033113 545.449536s43.462358-112.673907 64.257695-162.822781C146.85245 330.629934 146.445563 261.448901 185.62543 222.265642 224.805298 183.089166 290.788874 180.298596 342.778914 158.740344 392.93457 137.941616 454.323709 94.479258 512 94.479258z m0 211.093192c-35.992583 0-70.313536-18.425219-101.60996-5.44551-32.449272 13.454411-36.060397 58.744371-60.514331 83.198305-24.450543 24.450543-69.743894 28.06506-83.198305 60.51094-12.976318 31.296424 5.44551 65.617377 5.44551 101.609961 0 35.992583-18.421828 70.313536-5.44551 101.613351 13.454411 32.449272 58.747762 36.060397 83.198305 60.51094 24.453934 24.453934 28.06506 69.743894 60.514331 83.198305 31.296424 12.979709 65.617377-5.44551 101.60996-5.44551 35.992583 0 70.313536 18.425219 101.60996 5.44551 32.449272-13.454411 36.060397-58.744371 60.514331-83.198305 24.450543-24.450543 69.743894-28.06506 83.198305-60.51094 12.976318-31.296424-5.44551-65.620768-5.44551-101.613351 0-35.992583 18.421828-70.310146 5.44551-101.609961-13.454411-32.449272-58.747762-36.060397-83.198305-60.51094-24.453934-24.453934-28.06506-69.747285-60.514331-83.198305-31.296424-12.979709-65.617377 5.44551-101.60996 5.44551z" fill="#009042" p-id="6392"></path><path d="M838.37457 219.071576c39.183258 39.183258 38.77298 111.558358 60.334622 163.551788 20.795338 50.155656 64.257695 105.14649 64.257695 162.822782s-43.462358 112.673907-64.257695 162.822781c-21.561642 51.99343-21.151364 124.371921-60.334622 163.555179-39.179868 39.183258-111.558358 38.77298-163.551789 60.331232-50.152265 20.798728-105.14649 64.257695-162.822781 64.257695-28.380397 0-56.116556-10.524821-82.944-23.69441 14.647947 4.74702 29.512901 7.703735 44.564344 7.703735 57.676291 0 112.670517-43.462358 162.822782-64.257696 51.99343-21.561642 124.371921-21.151364 163.551788-60.334622 39.183258-39.179868 38.77298-111.554967 60.334622-163.551788 20.795338-50.152265 64.254305-105.14649 64.254305-162.822782s-43.458967-112.670517-64.254305-162.822781c-21.561642-51.99343-21.151364-124.371921-60.334622-163.551788-6.784848-6.788238-14.376689-12.386331-22.558517-17.116398 23.046781 7.066278 44.384636 16.553536 60.938173 33.107073zM206.573351 887.726623c34.348079 10.457007 72.968477 15.478675 104.224212 28.438039 6.947603 2.882119 13.986755 6.194861 21.114066 9.768689-40.72943-12.844079-89.298225-17.462252-124.785589-37.881219zM473.616954 289.578384c35.992583 0 70.313536-18.421828 101.60996-5.442119 6.466119 2.678675 11.786172 6.622093 16.353483 11.416583-25.125298-0.915497-51.857801 10.019603-79.583788 10.019602-35.992583 0-70.313536-18.425219-101.60996-5.44551-32.449272 13.454411-36.060397 58.744371-60.514331 83.198305-24.450543 24.450543-69.743894 28.06506-83.198305 60.51094-12.976318 31.296424 5.44551 65.617377 5.44551 101.609961 0 35.992583-18.421828 70.313536-5.44551 101.613351 13.454411 32.449272 58.747762 36.060397 83.198305 60.51094 19.581457 19.581457 25.800053 52.522384 44.160848 71.781722-7.49351-0.271258-14.837828-1.593642-22.029563-4.577484-32.445881-13.45102-36.060397-58.744371-60.510941-83.194913-24.450543-24.453934-69.743894-28.06506-83.198304-60.510941-12.976318-31.299815 5.44551-65.620768 5.44551-101.613351 0-35.992583-18.421828-70.313536-5.44551-101.60996 13.454411-32.449272 58.747762-36.060397 83.198304-60.514331 24.450543-24.450543 28.06506-69.740503 60.510941-83.194914 31.299815-12.979709 65.620768 5.442119 101.613351 5.442119z m184.537006-141.400159l1.369855 0.671364a222.862411 222.862411 0 0 1-16.685775-6.103311c-24.108079-9.995868-50.813457-25.22702-78.451285-38.35253 32.327205 11.087682 64.423841 29.394225 93.767205 43.784477z" fill="#056639" p-id="6393"></path><path d="M512 87.697801c14.315656 0 29.316238 2.515921 45.398464 7.323974 20.486781 6.123656 39.854623 14.671682 69.811708 29.868927l2.156503 1.095205 11.806517 6.035497 13.274702 6.74755 5.113219 2.543046c5.920212 2.922808 11.202967 5.431947 16.112741 7.639311l1.824212 0.813775 3.200848 1.393589 3.11947 1.315603c12.369377 5.130172 23.986013 8.680265 44.194755 13.742623l1.983576 0.491655 4.00106 0.990093 13.376424 3.248318c19.394967 4.733457 30.662358 7.795285 41.455046 11.572556l1.074861 0.379762 3.234755 1.176583 2.916026 1.101986c19.272901 7.415523 34.673589 16.655258 47.117563 29.099232 19.78151 19.784901 29.377272 42.506172 40.553113 88.335258l0.535735 2.200583 1.566517 6.601748 4.133298 17.845404c5.086093 21.653192 8.476821 33.927629 12.972927 45.662941l0.427232 1.098596 0.844291 2.129377 1.81743 4.387603c3.153377 7.473166 5.845616 13.189934 11.392848 23.816477l0.739179 1.417324 2.916026 5.530278 11.525086 21.54808C959.189616 484.63343 969.748344 512.55947 969.748344 545.446146c0 30.889536-9.314331 57.398252-32.473006 101.742198l-1.169802 2.2311-2.32943 4.407947-12.701669 23.765616c-6.856053 12.932238-10.155232 19.537377-13.278093 26.637563l-0.332291 0.759523-1.44106 3.366993-1.81743 4.387603c-4.428291 10.975788-7.659656 21.707444-11.996397 39.474861l-0.467921 1.932715-1.780132 7.483338-4.645298 20.01547c-11.708185 49.565669-21.144583 73.531338-41.224477 94.038463l-0.918888 0.92906-0.891761 0.881589c-19.890013 19.496689-43.021563 28.960212-89.610172 40.197087l-2.203974 0.528953-4.435073 1.051126-14.302093 3.30257c-25.267709 5.872742-38.30506 9.460132-51.34241 14.637774l-1.003656 0.400106-1.963232 0.803603-3.967152 1.664848c-6.076185 2.597298-11.233483 5.02845-19.371232 9.222781l-1.468185 0.762914-6.425431 3.366993-27.990463 14.942941c-47.053139 24.874384-74.290861 34.812609-106.197616 34.812609-30.886146 0-57.394861-9.31094-101.742199-32.473007l-2.231099-1.169801-4.407947-2.32943-24.799788-13.247577c-14.495364-7.673219-20.85298-10.755391-29.472212-14.397033l-0.868027-0.366198-2.838039-1.176583c-11.314861-4.631735-22.151629-7.920742-40.451391-12.386331l-1.915762-0.467921-7.459602-1.773351-20.018861-4.645298c-49.562278-11.708185-73.531338-21.141192-94.035073-41.224477l-0.93245-0.918887-0.88159-0.888371c-19.188132-19.581457-28.661828-42.302728-39.671523-87.443497l-0.532344-2.203973-1.569908-6.601748-4.133298-17.845404c-5.086093-21.656583-8.476821-33.927629-12.972927-45.662941l-0.427232-1.098596-0.844291-2.129377-1.034172-2.519312c-3.360212-8.076715-5.947338-13.688371-11.419974-24.233536l-0.766304-1.468185-5.387868-10.206093-12.118463-22.673801C64.18649 604.590623 54.251656 577.352901 54.251656 545.446146c0-11.294517 1.569907-22.819603 4.597827-34.775312a6.781457 6.781457 0 1 1 13.145855 3.329696C69.231894 524.911894 67.81457 535.328212 67.81457 545.446146c0 27.627656 8.514119 52.268079 29.923178 93.519682l1.118941 2.149722 3.377165 6.408476 8.439523 15.763497c10.273907 19.22204 14.268185 27.051232 18.194649 36.043444l0.294994 0.678146 1.837775 4.333351 1.766569 4.313006c4.79449 12.037086 8.229298 23.78596 13.006835 43.682755l0.481483 2.017484 1.369854 5.811708 3.238146 14.020662c11.799735 50.833801 20.673272 73.955179 39.556239 92.838146 17.78098 17.78098 39.315497 26.685033 84.208741 37.51502l2.119206 0.508609 4.350304 1.027391 16.183947 3.743364c25.952636 6.062623 39.169695 9.805987 53.397192 15.621086l1.095206 0.450967 2.621033 1.095206c7.473166 3.149987 13.189934 5.828662 23.199364 11.023258l1.458013 0.759523 6.910305 3.638252 23.962278 12.806781c46.507232 24.718411 72.592106 34.415894 102.07449 34.415894 28.092185 0 53.102199-8.805722 95.632106-31.021775l2.14294-1.11894 4.299444-2.275179 23.243444-12.42702c13.986755-7.418914 20.85298-10.84355 28.590622-14.217324l0.803603-0.349245 4.180768-1.776742 4.316398-1.763179c11.277563-4.492715 22.304212-7.791894 40.017377-12.121854l1.993748-0.484874 7.703735-1.830994 17.977643-4.167205c49.335099-11.548821 72.066543-20.435921 90.678251-39.047629 18.886358-18.886358 27.756503-42.007735 39.556239-92.838146l0.508609-2.197192 1.864901-8.114013c5.998199-25.905166 9.697483-39.651179 14.909033-53.149669l0.403497-1.040954 0.806993-2.024265 0.813775-1.993748c4.018013-9.683921 6.828927-15.746543 13.844344-29.122967l0.769696-1.461404 3.672159-6.930649 11.036821-20.632583c24.718411-46.507232 34.419285-72.595497 34.419284-102.07788 0-27.624265-8.514119-52.264689-29.923178-93.516292l-1.118941-2.149722-3.377165-6.408476-11.036821-20.632583c-9.561854-17.964079-12.945801-24.840477-17.109616-34.707497l-0.349245-0.827338-1.641113-3.973933c-5.004715-12.393113-8.497166-24.240318-13.410331-44.699974l-0.478093-2.00392-1.366463-5.798146-3.238146-14.020662c-11.630199-50.098013-20.412185-73.280424-38.742464-92.01759l-0.813775-0.823947-0.803602-0.796821c-17.950517-17.618225-37.79306-26.074702-81.296106-37.114914l-2.088689-0.525563-4.289271-1.068079-16.251762-3.960371c-20.151099-4.970808-32.44249-8.490384-44.384636-13.064477l-1.230834-0.474702-2.468451-0.983311-2.14294-0.874808c-5.153907-2.136159-10.545166-4.553748-16.519629-7.388397l-2.271788-1.085034-4.231629-2.05139-5.648954-2.793961-4.882649-2.454887-26.040795-13.278093c-25.996715-13.135682-43.648848-20.998781-61.226384-26.610437l-1.505483-0.474702-2.783788-0.851073c-14.898861-4.455417-28.617748-6.754331-41.512689-6.754331-12.89155 0-26.617219 2.298914-41.512689 6.754331-19.517033 5.832053-38.298278 14.125775-67.590781 28.983947l-2.109033 1.074861-21.860027 11.155497-8.503947 4.251974c-6.069404 2.997404-11.508132 5.581139-16.587444 7.863099l-1.888635 0.840901-3.322914 1.447841-3.248318 1.369854c-10.697748 4.438464-20.252821 7.673219-35.28053 11.952318l-1.990357 0.566251-7.63253 2.115815-19.123709 5.160689c-49.958993 13.600212-71.422305 22.75857-90.929165 42.26543-17.960689 17.964079-26.607046 38.366093-37.664212 83.001643l-0.522173 2.109033-1.536 6.347443-1.776741 7.510464c-6.944212 29.380662-10.728265 42.994437-16.946861 58.174728l-0.41706 1.017219-0.827338 1.980185c-3.404291 8.114013-6.171126 14.020662-11.976053 25.145643l-0.773086 1.481748-2.939761 5.581139-11.497961 21.500609a6.781457 6.781457 0 0 1-12.189668-5.926993l0.23396-0.474702 6.357616-11.864159c10.229828-19.123709 14.325828-27.085139 18.069192-35.551788l0.28143-0.637457 1.681802-3.919682 1.81743-4.380821c4.550358-11.260609 7.798675-22.019391 12.362596-40.448l0.474702-1.932715 1.39698-5.750676 4.00106-16.834967c12.24053-50.813457 21.375152-73.894146 41.899232-94.808159l0.898543-0.908715 0.881589-0.874808c20.85298-20.507126 43.113113-30.258861 91.536106-43.638675l2.217536-0.613722 4.414729-1.203709 8.47004-2.271788c22.382199-6.011762 34.39894-9.582199 46.046092-14.078305l1.000265-0.386543 1.993749-0.79343 2.79396-1.139285c7.188344-2.98045 14.932768-6.56106 24.257271-11.162278l2.024265-1.000265 2.04461-1.020609 5.459072-2.749881 24.94559-12.725404c28.756768-14.525881 47.687205-22.819603 67.689112-28.797457 16.082225-4.804662 31.082808-7.320583 45.398464-7.320583z m104.210649 206.163073l0.962967 0.406888c16.580662 7.168 25.142252 18.581192 38.105007 45.100079l4.84196 9.989086 1.478357 2.970278c6.489854 12.911894 11.019868 19.903576 17.319841 26.200159l0.657802 0.65102c7.045934 6.849272 15.159947 11.687841 31.476132 19.598411l5.479417 2.637986 4.543577 2.2311c24.887947 12.399894 35.636556 21.022517 42.509563 37.593006l0.786649 1.963232c6.411868 16.560318 5.750675 30.377536-0.105113 60.795762l-1.34951 6.920477-0.935841 4.93351c-2.319258 12.51857-3.248318 20.130755-3.319523 28.539761v2.041219c0.071205 9.161748 1.159629 17.36053 3.950198 31.954225l1.986967 10.246781c5.764238 30.380927 6.09653 43.876026-1.013827 61.022941-7.273113 17.543629-18.903311 26.176424-47.05314 39.824106l-5.479417 2.637986-3.051655 1.491921c-14.783576 7.283285-22.327947 12.003179-29.082279 18.754119l-0.647629 0.657801c-6.639046 6.825536-11.386066 14.654728-18.866013 29.97404l-3.373775 6.984901c-13.644291 28.146437-22.277086 39.776636-39.820715 47.049748-17.469033 7.245987-31.150623 6.767894-62.762384 0.681537l-8.510729-1.654676-3.265271-0.613722c-12.108291-2.248053-19.632318-3.194066-27.709033-3.322914l-1.963232-0.016953-2.109033 0.016953c-8.720954 0.152583-16.834967 1.261351-30.831894 3.936636l-10.246782 1.986967-5.187814 0.962967c-26.793536 4.818225-39.698649 4.713113-55.835126-1.976795-17.214728-7.137483-25.854305-18.472689-39.067974-45.503576l-4.84196-9.992477-1.478357-2.966887c-6.249113-12.433801-10.680795-19.378013-16.628133-25.498278l-1.34951-1.352901c-6.825536-6.639046-14.654728-11.386066-29.97404-18.866013l-6.9849-3.370384c-28.146437-13.644291-39.773245-22.280477-47.049749-39.824106-7.106967-17.136742-6.781457-30.631841-1.017218-60.992424l1.685192-8.687046c3.010967-15.563444 4.177377-24.013139 4.255364-33.473272v-2.041219c-0.067815-8.812503-1.078252-16.729854-3.634861-30.299549l-1.966622-10.165404c-6.086358-31.611762-6.56445-45.293351 0.678145-62.762384 7.273113-17.540238 18.903311-26.176424 47.05314-39.820716l5.479417-2.641377 3.051655-1.491921c14.783576-7.283285 22.327947-12.003179 29.082279-18.750728l0.647629-0.661192c6.639046-6.822146 11.386066-14.651338 18.866013-29.970649l3.373775-6.984901c13.389987-27.627656 21.958358-39.342623 38.857748-46.642861l1.932715-0.803602 1.949669-0.756133c16.146649-6.021934 30.007947-5.272583 59.842967 0.471311l6.917086 1.34951 4.787709 0.905325c12.152371 2.258225 19.68657 3.207629 27.780238 3.336477l1.963232 0.016953c9.216 0 17.211338-0.986702 31.289642-3.641642l10.158623-1.966623c31.611762-6.086358 45.293351-6.56445 62.762384 0.678146z m-203.223311 12.528742c-13.156026 5.455682-20.344371 14.915815-32.150888 39.074755l-4.136688 8.551417-1.573298 3.197457c-7.456212 14.970066-12.66098 23.111205-20.456265 30.90649-8.33102 8.33102-17.062146 13.705325-34.100557 22.029563l-9.958569 4.825007-2.875338 1.434278c-21.022517 10.582464-29.672265 17.679258-34.792265 30.0249-5.774411 13.925722-5.469245 25.667815-0.169536 53.539603l1.966622 10.14506 0.939232 5.035231c2.32604 12.803391 3.224583 20.85298 3.224583 30.292769v1.095205c-0.077987 10.14506-1.241007 18.933828-4.163815 34.236185l-1.966622 10.141669-0.623894 3.333086c-4.692768 25.50506-4.74702 36.853828 0.79343 50.209908 5.560795 13.410331 15.285404 20.625801 40.512424 32.845986l5.49298 2.648159 3.289007 1.610596c15.949987 7.86649 24.379338 13.156026 32.432318 21.209007 8.334411 8.334411 13.705325 17.062146 22.029563 34.103947l4.136688 8.551417c11.803126 24.15894 18.994861 33.619073 32.150888 39.071364 13.922331 5.774411 25.664424 5.472636 53.539602 0.169537l11.759047-2.271788c13.786702-2.597298 22.195709-3.695894 31.537165-3.841696l2.176848-0.016953c10.253563 0 18.869404 1.061298 33.714013 3.858649l13.349298 2.576953 3.265272 0.596769c24.440371 4.414728 35.599258 4.357086 48.684079-1.071471 13.156026-5.452291 20.344371-14.912424 32.150888-39.071364l4.136688-8.551417 1.573298-3.197457c7.456212-14.970066 12.66098-23.111205 20.456265-30.90649 8.592106-8.592106 17.608053-14.037616 35.724716-22.819603l5.49298-2.644768 2.895682-1.417324c23.084079-11.382675 32.269563-18.547285 37.613351-31.432053 5.774411-13.925722 5.469245-25.667815 0.169536-53.539603l-1.986967-10.253563c-2.905854-15.217589-4.062093-23.986013-4.140079-34.093775v-2.220927c0.074596-10.14845 1.237616-18.933828 4.160424-34.236185l1.966622-10.141669 0.623894-3.336477c4.692768-25.50506 4.74702-36.850437-0.79343-50.206517-5.452291-13.156026-14.915815-20.344371-39.071364-32.147496l-6.930649-3.346649c-18.116662-8.781987-27.132609-14.227497-35.724716-22.819603-8.334411-8.334411-13.705325-17.062146-22.029563-34.103947l-4.828397-9.955179-1.430887-2.878728c-10.585854-21.022517-17.679258-29.668874-30.028292-34.788874-13.922331-5.777801-25.664424-5.472636-53.539602-0.172928l-10.141669 1.966623-5.038623 0.942623c-12.267656 2.227709-20.174834 3.146596-29.119576 3.221192h-2.265007c-10.14845-0.077987-18.937219-1.241007-34.239576-4.163815l-10.138278-1.966623c-27.87857-5.299709-39.620662-5.604874-53.542993 0.169537zM74.596026 478.092715a6.781457 6.781457 0 1 1 0 13.562914 6.781457 6.781457 0 0 1 0-13.562914z" fill="#4C3030" p-id="6394"></path><path d="M161.04943 601.840742m-46.22241 0a46.222411 46.222411 0 1 0 92.444821 0 46.222411 46.222411 0 1 0-92.444821 0Z" fill="#CF0000" p-id="6395"></path><path d="M188.27698 564.488477a46.157987 46.157987 0 0 1 18.994861 37.352265c0 25.528795-20.697007 46.222411-46.222411 46.22241-18.357404 0-34.21245-10.701139-41.672053-26.203549a45.998623 45.998623 0 0 0 27.22755 8.870145c25.528795 0 46.222411-20.693616 46.222411-46.22241 0-7.090013-1.597033-13.807046-4.452027-19.812027z" fill="#9E0000" p-id="6396"></path><path d="M831.833854 590.224106m-44.77796 0a44.77796 44.77796 0 1 0 89.555921 0 44.77796 44.77796 0 1 0-89.555921 0Z" fill="#EE8337" p-id="6397"></path><path d="M856.450543 552.814199a44.737272 44.737272 0 0 1 20.161272 37.409907c0 24.728583-20.045987 44.77796-44.777961 44.77796a44.737272 44.737272 0 0 1-37.409907-20.161271 44.560954 44.560954 0 0 0 24.616689 7.368053c24.728583 0 44.77796-20.049377 44.77796-44.777961 0-8.832848-2.556609-17.065536-6.971338-24.006357z" fill="#CD651A" p-id="6398"></path><path d="M585.561854 884.471523m-35.182198 0a35.182199 35.182199 0 1 0 70.364397 0 35.182199 35.182199 0 1 0-70.364397 0Z" fill="#FACB62" p-id="6399"></path><path d="M605.173828 855.260397a35.148291 35.148291 0 0 1 15.570225 29.211126c0 19.428874-15.753325 35.182199-35.182199 35.182199a35.148291 35.148291 0 0 1-29.207735-15.563444 35.026225 35.026225 0 0 0 19.611974 5.967682c19.428874 0 35.182199-15.749934 35.182198-35.182198 0-7.005245-2.048-13.535788-5.581139-19.021987z" fill="#E8A44E" p-id="6400"></path><path d="M243.33902 327.96143m-35.182199 0a35.182199 35.182199 0 1 0 70.364398 0 35.182199 35.182199 0 1 0-70.364398 0Z" fill="#FFFFFF" p-id="6401"></path><path d="M260.987762 297.51947a35.168636 35.168636 0 0 1 17.530066 30.44196c0 19.428874-15.749934 35.178808-35.178808 35.178808a35.168636 35.168636 0 0 1-30.44196-17.530066 35.033007 35.033007 0 0 0 17.648741 4.736848c19.428874 0 35.182199-15.749934 35.182199-35.182199 0-6.367788-1.695364-12.342252-4.65547-17.496159z" fill="#F9E5E5" p-id="6402"></path><path d="M471.558781 159.923709l120.058914 21.168317c-45.391682 53.929536-73.382146 110.927682-83.974781 170.994438-10.589245 60.063364-38.579709 117.058119-83.971391 170.987655l-22.80943-69.048794-97.249484 47.877086c45.391682-53.926146 73.382146-110.924291 83.971391-170.987656 10.592636-60.066755 38.583099-117.06151 83.974781-170.994437z" fill="#9E0000" p-id="6403"></path><path d="M306.613404 507.992159c-6.588185 3.244927-12.911894-4.831788-8.185219-10.450225 43.930278-52.190093 71.21547-107.157192 81.967471-164.958941l1.034172-5.713377c11.182623-60.232901 39.532503-117.353113 84.94453-171.309775a6.781457 6.781457 0 0 1 6.364397-2.312477l120.058914 21.171709c5.147126 0.905325 7.374834 7.045934 4.011232 11.043602-43.930278 52.193483-71.21547 107.157192-81.967471 164.958941l-1.034172 5.713377c-11.182623 60.232901-39.532503 117.356503-84.94453 171.309775-3.417854 4.062093-9.96196 2.800742-11.626807-2.237881l-20.364716-61.653615-90.261192 44.438887z m167.637616-340.703788c-42.468874 51.301722-68.926728 105.271947-79.468503 161.968318l-1.044345 5.754066c-9.561854 51.47804-31.669404 100.687682-66.248053 147.584848l70.381351-34.653245a6.781457 6.781457 0 0 1 9.433007 3.95698l18.944 57.34739c39.393483-49.358834 64.098331-101.165775 74.202702-155.475072l1.040953-5.757457c10.382411-55.892768 35.548397-109.110252 75.409802-159.60159l2.112424-2.651549-104.763338-18.472689z" fill="#4C3030" p-id="6404"></path><path d="M574.209695 236.577907h-121.913642c35.338172 60.992424 53.007258 121.984848 53.007258 182.977272 0 60.989033 17.665695 121.981457 53.003868 182.973881l34.449801-64.040689 87.46045 64.040689c-35.334781-60.992424-53.003868-121.984848-53.003867-182.973881 0-60.992424-17.665695-121.984848-53.003868-182.977272z" fill="#9E0000" p-id="6405"></path><path d="M673.04943 608.001695c5.923603 4.336742 13.552742-2.519311 9.873802-8.873536-34.198887-59.025801-51.528901-117.895629-52.078199-176.68408l-0.027126-5.808317c-0.552689-61.256901-18.550675-122.439205-53.90241-183.455365a6.781457 6.781457 0 0 0-5.869351-3.383947H449.135894c-5.225113 0-8.486993 5.662517-5.86596 10.182358 34.195497 59.025801 51.52551 117.895629 52.074808 176.684079l0.027126 5.808318c0.552689 61.260291 18.550675 122.439205 53.905801 183.458755 2.658331 4.591046 9.324503 4.485934 11.840424-0.18649l30.760688-57.181245 81.170649 59.43947z m-212.310463-364.63894h106.380715c32.913801 57.893298 49.599576 115.640795 50.135311 173.306914l0.027126 5.849006c0.481483 52.352848 13.705325 104.654834 39.617272 156.844928l-63.294729-46.347868a6.781457 6.781457 0 0 0-9.978914 2.258225l-28.610967 53.183576c-30.224954-55.445192-45.561219-110.754755-46.08-165.996503l-0.027125-5.849007c-0.518781-56.845563-16.05849-113.623311-46.547921-170.272211l-1.620768-2.980451z" fill="#4C3030" p-id="6406"></path><path d="M259.95698 44.988185C284.492291 28.210861 324.37743 25.423682 355.667073 39.756291c20.859762 9.555073 52.030728 33.486834 93.50951 71.795285v139.036821L355.667073 300.215099a119.991099 119.991099 0 0 1-23.477404 7.571497C269.878252 320.803603 252.609272 241.908132 241.531762 181.064901 230.44747 120.235232 236.706755 60.887311 259.95698 44.988185z m472.748927 0c23.250225 15.899126 29.50951 75.247046 18.42861 136.080106-11.084291 60.83645-28.34649 139.731921-90.657908 126.721696a119.991099 119.991099 0 0 1-23.480794-7.571497l-93.50612-49.630093V111.551576C584.965086 73.239735 616.136053 49.311364 636.995815 39.756291 668.285457 25.430464 708.170596 28.210861 732.705907 44.988185z" fill="#C40000" p-id="6407"></path><path d="M275.683179 285.160265c-9.595762-13.139073 4.679205-60.124397 65.020609-57.740715 19.293245 0.762914 55.451974 5.604874 108.469404 14.52249v8.646357L355.670464 300.215099a119.991099 119.991099 0 0 1-23.477404 7.571497c-25.484715 5.323444-43.435232-4.730066-56.50649-22.629722z m441.29653 0c-13.071258 17.903046-31.021775 27.949775-56.5031 22.629722a119.991099 119.991099 0 0 1-23.480794-7.571497l-93.50612-49.630093v-8.646357c53.01743-8.917616 89.176159-13.759576 108.469404-14.52249 60.341404-2.383682 74.616371 44.601642 65.02061 57.740715z" fill="#9E0000" p-id="6408"></path><path d="M283.047841 34.422675c3.912901-1.11894-33.083338 47.453245-5.577748 108.842385 18.34045 40.926093 75.575947 69.160689 171.70649 84.700397v22.62294L355.667073 300.215099a119.991099 119.991099 0 0 1-23.477404 7.571497C269.878252 320.803603 252.609272 241.908132 241.531762 181.064901 230.44747 120.235232 236.706755 60.887311 259.95698 44.988185c6.713642-4.591046 14.573351-8.134358 23.090861-10.56551z m426.567205 0c8.51751 2.431152 16.377219 5.974464 23.090861 10.56551 23.250225 15.899126 29.50951 75.247046 18.42861 136.080106-11.084291 60.83645-28.34649 139.731921-90.657908 126.721696a119.991099 119.991099 0 0 1-23.480794-7.571497l-93.50612-49.630093V227.958675c96.127152-15.536318 153.362649-43.770914 171.7031-84.697006 27.505589-61.389139-9.49404-109.961325-5.577749-108.842384z" fill="#9E0000" p-id="6409"></path><path d="M449.176583 241.94204v8.646357L355.667073 300.215099a119.991099 119.991099 0 0 1-23.477404 7.571497c-25.484715 5.323444-43.435232-4.730066-56.50649-22.629722-2.834649-3.882384-3.587391-10.714702-1.681802-18.357404 0.729007-2.936371 1.854728-5.991417 3.400901-9.046463 1.525828-3.004185 18.031894 24.548874 46.958199 25.69494 19.293245 0.762914 60.900874-13.074649 124.812715-41.509298z m94.313112 0c63.915232 28.434649 105.51947 42.272212 124.812716 41.509298 28.926305-1.146066 45.435762-28.699126 46.961589-25.694941 1.546172 3.051656 2.668503 6.110093 3.39751 9.046464 1.905589 7.642702 1.152848 14.478411-1.681801 18.357404-13.071258 17.903046-31.021775 27.949775-56.5031 22.629722a119.991099 119.991099 0 0 1-23.480794-7.571497l-93.50612-49.630093v-8.646357z" fill="#BA0000" p-id="6410"></path><path d="M358.545801 33.591947c20.659709 9.460132 50.321801 31.933881 89.359259 67.53653l1.959841 1.793695 3.967152 3.648424a6.781457 6.781457 0 0 1 2.149722 4.353695l0.030516 0.627285v139.036821a6.781457 6.781457 0 0 1-3.143205 5.720159l-0.461139 0.271259-93.506119 49.626702-0.46453 0.223788a126.752212 126.752212 0 0 1-24.80996 7.995337C301.693457 321.101987 278.10755 306.532026 261.699815 275.276291c-10.918146-20.80551-17.702993-45.022093-25.030358-83.554331l-0.450967-2.37351-1.30543-7.062887-0.691709-3.912901c-10.670623-62.474172-3.400901-119.499444 20.466437-137.894145l0.735788-0.552689 0.759523-0.535735 1.25457-0.83751c26.94951-17.631788 68.631735-19.835762 101.108132-4.960636z m377.988239 5.798146c9.348238 6.391523 16.214464 18.10649 20.683443 34.009006a6.781457 6.781457 0 1 1-13.057695 3.665378c-3.685722-13.118728-9.002384-22.185536-15.282013-26.48159-22.85351-15.627868-60.287152-17.835232-89.057484-4.658861-17.767417 8.137748-43.950623 27.617483-78.247841 58.337484l-1.844556 1.658066-3.736583 3.377166-5.720159 5.228503-0.00339 121.130384 4.923337-0.813775c44.798305-7.357881 76.294781-11.49457 94.621669-12.416847l1.946278-0.088159c28.76694-1.135894 50.389616 8.419179 62.992954 25.060874a52.057854 52.057854 0 0 1 7.737642 14.47841c7.812238-17.08249 13.437457-37.813404 19.344106-68.072264l0.450967-2.322649 0.888371-4.655471 1.288477-6.971337c3.533139-19.401748 5.303099-38.847576 5.21155-56.808265a6.781457 6.781457 0 0 1 13.562913-0.067815c0.09494 18.811762-1.749616 39.095099-5.431947 59.303841-8.036026 44.109987-15.000583 70.540715-26.786754 92.994119-16.404344 31.255735-39.993642 45.822305-71.927524 39.149351a125.728212 125.728212 0 0 1-22.351682-6.950993l-2.458278-1.044344-0.46453-0.223788L540.312583 256.576424a6.781457 6.781457 0 0 1-3.580609-5.455682l-0.020345-0.532345V111.551576a6.781457 6.781457 0 0 1 2.180239-4.984371c41.973828-38.762808 73.58898-63.040424 95.28286-72.975258 32.985007-15.105695 75.464053-12.596556 102.362702 5.798146zM652.162543 232.502252l-2.895682 0.135629c-17.764026 0.990093-48.070358 4.98098-90.803709 11.972662l-8.19539 1.352901v0.545907l89.677986 47.595656 2.42098 1.020609a111.975417 111.975417 0 0 0 19.496689 6.025324c22.717881 4.74702 39.56302-3.736583 52.773298-24.582781 0.481483-6.272848-2.129377-15.282013-7.995338-23.029828-10.531603-13.908768-28.946649-22.046517-54.478834-21.036079zM286.038464 253.538331c-5.845616 7.720689-8.459868 16.692556-8.00212 22.958623 13.21706 20.90045 30.072371 29.404397 52.820769 24.650596 5.682861-1.186755 11.392848-2.878728 17.062145-5.055576l2.431153-0.966358 2.42098-1.020609L442.449377 246.50596l-0.00339-0.539126-8.229298-1.356291c-41.926358-6.862834-71.893616-10.836768-89.78649-11.91502l-1.017219-0.057642-2.895682-0.13902c-25.532185-1.010437-43.943841 7.127311-54.478834 21.036079zM263.839364 50.582887c-18.988079 12.98649-26.152689 65.569907-16.529801 123.829404l0.305165 1.824212 0.644239 3.617908 1.288477 6.971337c6.405086 34.076821 12.274437 56.64551 20.659708 75.002914a52.064636 52.064636 0 0 1 7.720689-14.43094c12.365987-16.326358 33.412238-25.837351 61.372185-25.111735l1.620769 0.050861 1.946278 0.088159c17.991205 0.905325 48.680689 4.906384 92.190516 12.016741l2.431153 0.396716 4.957245 0.823947V114.525245l-5.720159-5.228503c-37.05049-33.636026-65.108768-54.800954-83.82898-63.372716-28.770331-13.179762-66.203974-10.969007-89.057484 4.658861zM756.13245 91.549669a6.781457 6.781457 0 1 1 0 13.562914 6.781457 6.781457 0 0 1 0-13.562914z" fill="#4C3030" p-id="6411"></path><path d="M491.516609 83.591629c36.697854 0 68.424901 25.6 76.179497 61.473907 2.163285 10.012821 3.244927 20.025642 3.244927 30.038464 0 10.012821-1.085033 20.025642-3.244927 30.041854a77.935894 77.935894 0 0 1-76.179497 61.470517 74.941881 74.941881 0 0 1-73.365192-59.653086 155.793801 155.793801 0 0 1-3.322914-31.859285c0-10.619762 1.108768-21.239523 3.322914-31.859285a74.941881 74.941881 0 0 1 73.365192-59.653086z" fill="#C40000" p-id="6412"></path><path d="M567.696106 145.062146c2.163285 10.016212 3.244927 20.029033 3.244927 30.041854 0 10.012821-1.085033 20.025642-3.244927 30.041854a77.935894 77.935894 0 0 1-76.179497 61.470517 74.958834 74.958834 0 0 1-66.139549-39.685086 74.765563 74.765563 0 0 0 43.750569 14.098649c36.697854 0 68.424901-25.6 76.179497-61.473908a141.834172 141.834172 0 0 0 3.244927-30.041854c0-10.00943-1.081642-20.025642-3.244927-30.038463a77.87147 77.87147 0 0 0-7.720689-20.80551 77.796874 77.796874 0 0 1 30.109669 46.391947z" fill="#9E0000" p-id="6413"></path><path d="M494.63947 76.810172c39.891921 0 74.37902 27.827709 82.80498 66.821086a148.612238 148.612238 0 0 1 3.400901 31.472742c0 10.497695-1.135894 20.988609-3.400901 31.472742-8.42596 38.993377-42.91306 66.821086-82.80498 66.821086-38.708556 0-72.110623-27.159735-80.004238-65.051126a162.575258 162.575258 0 0 1-3.461934-33.242702c0-11.087682 1.152848-22.168583 3.458543-33.242702 7.900397-37.894781 41.299073-65.051126 80.007629-65.051126z m0 13.562914a68.160424 68.160424 0 0 0-66.729536 54.255046 149.012344 149.012344 0 0 0-3.173722 30.475868c0 10.151841 1.057907 20.310464 3.173722 30.475868a68.160424 68.160424 0 0 0 66.729536 54.255046 71.154437 71.154437 0 0 0 69.550623-56.123338 135.052715 135.052715 0 0 0 3.092344-28.607576c0-9.527947-1.030781-19.062675-3.092344-28.607576a71.154437 71.154437 0 0 0-69.550623-56.123338z" fill="#4C3030" p-id="6414"></path></svg>