<svg t="1670557803777" class="icon" viewBox="0 0 1030 1024" version="1.1" xmlns="http://www.w3.org/2000/svg" p-id="6226" width="200" height="200"><path d="M733.530864 293.62963a49.382716 49.382716 0 1 0-79.604938 26.864197L509.925926 440.098765l40.493827 48.691358L694.123457 369.382716a36.641975 36.641975 0 0 0 2.765432 4.049383 48.790123 48.790123 0 1 0 36.641975-79.802469z" fill="#A9ECEB" p-id="6227"></path><path d="M443.061728 365.432099C263.012346 365.432099 117.62963 535.111111 117.62963 743.901235h650.864197C768.493827 535.111111 622.814815 365.432099 443.061728 365.432099z" fill="#C8473F" p-id="6228"></path><path d="M543.506173 436.148148A283.654321 283.654321 0 0 1 658.074074 460.444444 299.753086 299.753086 0 0 0 443.061728 365.432099C263.012346 365.432099 117.62963 535.111111 117.62963 743.901235H223.506173c28.641975-175.209877 160.987654-307.753086 320-307.753087z" fill="#DC4E45" p-id="6229"></path><path d="M951.802469 372.246914a48.691358 48.691358 0 1 0-85.135802 21.333333 42.469136 42.469136 0 0 0 5.629629 5.530864L728.395062 518.716049l40.493827 48.691358 143.604938-119.407407c0.888889 1.283951 1.679012 2.765432 2.765432 4.049383a48.790123 48.790123 0 1 0 75.061729-62.419753 48.197531 48.197531 0 0 0-38.518519-17.382716z" fill="#A9ECEB" p-id="6230"></path><path d="M407.012346 743.901235h366.716049c67.555556-71.407407 71.703704-192.197531 40.691358-243.25926-35.45679-58.469136-220.839506-72.395062-316.049383-8.395061S342.024691 648.395062 398.222222 732.345679c3.061728 4.049383 5.728395 7.802469 8.790124 11.555556z" fill="#FF6B5B" p-id="6231"></path><path d="M814.419753 500.641975c-22.617284-37.234568-105.975309-56.395062-187.654321-48.888889 55.012346 5.234568 101.728395 22.518519 117.728395 48.888889 31.012346 51.061728 26.864198 171.851852-40.691358 243.25926h70.320988c67.160494-71.407407 71.604938-192.197531 40.296296-243.25926z" fill="#FF8476" p-id="6232"></path><path d="M127.901235 822.222222h659.259259a35.753086 35.753086 0 0 0 35.753086-35.753086H92.148148a35.753086 35.753086 0 0 0 35.753087 35.753086z" fill="#00C4B8" p-id="6233"></path><path d="M44.740741 788.641975h825.580247A44.740741 44.740741 0 0 0 914.864198 743.901235H0a44.740741 44.740741 0 0 0 44.740741 44.74074z" fill="#6ADDD6" p-id="6234"></path></svg>