<svg t="1670559397185" class="icon" viewBox="0 0 1024 1024" version="1.1" xmlns="http://www.w3.org/2000/svg" p-id="7605" width="200" height="200"><path d="M819.753086 776.296296a33.382716 33.382716 0 0 1-35.259259 38.123457c-6.617284 0-9.876543 0.493827-13.333333 4.444445s-3.753086 7.111111-3.45679 13.728395a33.382716 33.382716 0 0 1-35.25926 38.123456 19.753086 19.753086 0 0 0-10.765432 2.271605l11.25926 9.876544a72.790123 72.790123 0 0 0 97.777777-107.851852l-9.876543-8.987655A22.617284 22.617284 0 0 0 819.753086 776.296296zM791.209877 399.308642a33.382716 33.382716 0 0 1 12.839506 50.172839c-3.45679 5.728395-4.839506 8.493827-3.555556 13.728396s3.950617 6.91358 9.876543 10.37037A33.382716 33.382716 0 0 1 823.012346 523.45679a19.753086 19.753086 0 0 0-3.950618 9.876543l13.925926-4.641975a72.790123 72.790123 0 1 0-36.049382-140.54321l-14.024692 4.246914a20.938272 20.938272 0 0 0 8.296297 6.91358zM348.345679 826.37037a34.17284 34.17284 0 0 1-8.592593-27.555555 15.703704 15.703704 0 0 0-3.45679-13.728395c-3.654321-3.950617-6.716049-4.148148-13.333333-4.444445a33.382716 33.382716 0 0 1-35.259259-38.123456 16.493827 16.493827 0 0 0-2.765432-12.740741l-24.987655 22.716049a35.654321 35.654321 0 0 1 6.71605 24.592593c0 6.617284 0 9.876543 3.358024 13.629629s6.814815 4.246914 13.432099 4.54321a33.481481 33.481481 0 0 1 35.259259 38.123457c0 6.617284 0 9.876543 3.456791 13.728395s6.716049 4.246914 13.432098 4.444445a35.950617 35.950617 0 0 1 23.703704 7.802469l23.802469-21.530865a35.654321 35.654321 0 0 0-7.604938-0.888888 34.271605 34.271605 0 0 1-27.160494-10.567902z" fill="#FF6B5B" p-id="7606"></path><path d="M778.864198 742.518519A33.382716 33.382716 0 0 1 743.604938 780.246914c-6.617284 0-9.876543 0-13.333333 4.444444a15.703704 15.703704 0 0 0-3.45679 13.728395 33.382716 33.382716 0 0 1-35.45679 38.518519 31.506173 31.506173 0 0 0-8.592593 1.185185l24.197531 21.82716a35.555556 35.555556 0 0 1 24.296296-8.395061c6.617284 0 9.876543 0 13.432099-4.444445s3.654321-7.111111 3.45679-13.728395a33.382716 33.382716 0 0 1 35.259259-38.123457c6.617284 0 9.876543 0 13.333334-4.54321s3.753086-7.012346 3.45679-13.629629a35.061728 35.061728 0 0 1 5.629629-23.901235L781.037037 730.864198a17.283951 17.283951 0 0 0-2.172839 11.654321zM307.555556 860.148148a34.37037 34.37037 0 0 1-8.493828-27.555555c0-6.617284 0-9.876543-3.45679-13.728395s-6.716049-4.148148-13.432098-4.444445A33.382716 33.382716 0 0 1 246.91358 776.296296a19.753086 19.753086 0 0 0-1.382716-10.864197l-10.864197 9.876543a72.790123 72.790123 0 1 0 97.777777 107.851852l11.654321-10.567901a21.62963 21.62963 0 0 0-9.876543-1.876544 34.567901 34.567901 0 0 1-26.666666-10.567901zM237.037037 495.604938A33.876543 33.876543 0 0 1 255.209877 474.074074c5.728395-3.45679 8.296296-5.135802 9.876543-10.37037s0-8-3.45679-13.728395a33.185185 33.185185 0 0 1 12.839506-50.17284 22.024691 22.024691 0 0 0 8.197531-6.814815l-14.123457-4.345679a72.790123 72.790123 0 1 0-35.950617 141.037037l14.024691 4.641976a21.234568 21.234568 0 0 0-3.950617-9.876544 34.17284 34.17284 0 0 1-5.62963-28.839506z" fill="#FF6B5B" p-id="7607"></path><path d="M292.839506 539.753086a33.382716 33.382716 0 0 1 12.839506-50.37037c5.728395-3.358025 8.296296-5.135802 9.876544-9.876543s0-8-3.555556-13.62963A33.283951 33.283951 0 0 1 324.641975 414.814815a20.641975 20.641975 0 0 0 8.395062-7.012346l-32.098765-9.876543a36.049383 36.049383 0 0 1-16.987655 17.679012c-5.728395 3.358025-8.296296 5.037037-9.876543 9.876543s0 8 3.555556 13.62963a33.382716 33.382716 0 0 1-12.839507 50.37037c-5.728395 3.358025-8.296296 5.135802-9.876543 10.370371s0 7.901235 3.555556 13.629629a34.864198 34.864198 0 0 1 6.024691 25.876544l31.901235 10.469135a19.753086 19.753086 0 0 0-3.555556-10.074074zM806.518519 514.074074c3.358025-5.728395 4.839506-8.493827 3.45679-13.62963s-3.950617-7.012346-9.876544-10.37037a34.567901 34.567901 0 0 1-18.37037-22.123457 33.975309 33.975309 0 0 1 5.62963-28.246913c3.358025-5.62963 4.839506-8.395062 3.45679-13.62963s-3.950617-6.91358-9.876543-9.876543a35.654321 35.654321 0 0 1-16.987655-17.679012l-32.098765 9.876543a19.753086 19.753086 0 0 0 8.888889 6.419753 33.283951 33.283951 0 0 1 12.74074 50.271605c-3.358025 5.62963-4.839506 8.395062-3.45679 13.629629s3.950617 7.012346 9.876544 9.876544a33.580247 33.580247 0 0 1 12.839506 50.37037 18.567901 18.567901 0 0 0-3.950618 10.666667l31.901235-10.469136a34.864198 34.864198 0 0 1 5.827161-25.08642z" fill="#FF6B5B" p-id="7608"></path><path d="M756.049383 529.876543c3.358025-5.728395 4.839506-8.395062 3.45679-13.629629s-3.950617-7.012346-9.876543-10.370371A34.271605 34.271605 0 0 1 731.45679 483.950617a33.679012 33.679012 0 0 1 5.62963-28.148148c3.358025-5.728395 4.839506-8.493827 3.45679-13.728395s-3.950617-6.91358-9.876543-9.876543a35.753086 35.753086 0 0 1-16.987655-17.876543l-123.061728 37.530864a156.54321 156.54321 0 1 0-116.049383 0L351.407407 413.82716a35.555556 35.555556 0 0 1-16.987654 17.777778c-5.728395 3.358025-8.296296 5.037037-9.876543 9.876543s0 8 3.555555 13.728396a33.283951 33.283951 0 0 1-12.839506 50.271604c-5.728395 3.358025-8.296296 5.135802-9.876543 10.370371s0 7.901235 3.555556 13.629629a34.864198 34.864198 0 0 1 5.925926 26.666667l57.382716 18.962963c33.283951 11.061728 39.506173 39.506173 13.333333 62.814815l-86.814815 79.012346a34.17284 34.17284 0 0 1 7.703704 26.37037c0 6.617284 0 9.876543 3.45679 13.728395s6.716049 4.148148 13.333333 4.444444a33.382716 33.382716 0 0 1 35.654321 38.518519c0 6.617284 0 9.876543 3.45679 13.728395s6.814815 4.246914 13.432099 4.444445a36.938272 36.938272 0 0 1 21.827161 6.419753l114.765432-104.395062a30.91358 30.91358 0 0 1 40.493827 0L668.148148 824.691358a36.641975 36.641975 0 0 1 22.617284-6.91358c6.617284 0 9.876543 0 13.432099-4.444445s3.654321-7.111111 3.45679-13.728395a33.382716 33.382716 0 0 1 35.160494-38.123457c6.716049 0 9.876543 0 13.432099-4.444444s3.654321-7.111111 3.45679-13.728395a34.567901 34.567901 0 0 1 7.111111-25.777778l-87.506173-79.012345c-25.975309-23.604938-19.753086-51.753086 13.234568-62.814815L750.617284 556.54321a34.469136 34.469136 0 0 1 5.432099-26.666667z" fill="#FF6B5B" p-id="7609"></path><path d="M258.864198 514.074074c-3.45679-5.728395-4.839506-8.493827-3.555556-13.62963s3.950617-7.012346 9.876543-10.37037a33.382716 33.382716 0 0 0 12.839506-50.37037c-3.358025-5.62963-4.839506-8.395062-3.555555-13.62963s3.950617-6.91358 9.876543-9.876543a36.049383 36.049383 0 0 0 16.987654-17.679012l-18.567901-5.62963a22.024691 22.024691 0 0 1-8.197531 6.814815 33.185185 33.185185 0 0 0-12.839506 50.172839c3.358025 5.728395 4.839506 8.493827 3.45679 13.728395s-3.851852 6.91358-9.876543 10.370371A33.283951 33.283951 0 0 0 242.37037 523.45679a21.234568 21.234568 0 0 1 3.950618 9.876543l18.567901 6.123457a34.864198 34.864198 0 0 0-6.024691-25.382716zM309.333333 529.876543c-3.358025-5.728395-4.839506-8.395062-3.555555-13.629629s3.950617-7.012346 9.876543-10.370371a33.283951 33.283951 0 0 0 12.839506-50.271605c-3.358025-5.728395-4.839506-8.493827-3.555555-13.728395s3.950617-6.91358 9.876543-9.876543a35.555556 35.555556 0 0 0 16.987654-17.777778l-18.37037-5.728395a20.641975 20.641975 0 0 1-8.395062 7.012346 33.283951 33.283951 0 0 0-12.839506 50.271605c3.45679 5.62963 4.839506 8.395062 3.555555 13.629629s-3.950617 7.012346-9.876543 9.876544a33.382716 33.382716 0 0 0-12.839506 50.37037 19.753086 19.753086 0 0 1 3.950617 10.666667l18.469136 6.123456a34.864198 34.864198 0 0 0-6.123457-26.567901z" fill="#FFFFFF" p-id="7610"></path><path d="M648 297.481481a210.271605 210.271605 0 0 1-57.382716 154.370371 161.185185 161.185185 0 0 0 57.185185-39.506173 156.345679 156.345679 0 0 0-102.320988-261.62963c59.753086 22.024691 98.864198 79.407407 102.518519 146.765432zM692.54321 575.506173L750.617284 556.54321l18.469136-6.123457 31.901234-10.469136 18.567902-6.123457 13.925925-4.641975A72.790123 72.790123 0 0 0 809.876543 386.074074a72.790123 72.790123 0 0 1-17.679012 134.024691l-13.827161 4.54321-18.666666 6.222223-31.802469 10.469135-18.469136 6.123457L651.851852 566.419753c-33.283951 10.962963-39.506173 39.506173-13.234568 62.716049l87.506173 79.012346 13.82716 12.839506 24.987655 22.617284 14.518518 13.234568 9.876543 8.987654a72.691358 72.691358 0 0 1-43.45679 126.419754 72.790123 72.790123 0 0 0 84.641976-116.938272l-9.876544-8.987654-14.518518-13.135803L781.037037 730.864198l-14.222222-12.938272-87.506173-79.012346c-25.975309-24.197531-20.049383-52.345679 13.234568-63.407407zM511.703704 711.111111a30.814815 30.814815 0 0 0-40.395062 0L356.54321 815.111111l-15.012346 13.530864-23.802469 21.62963-14.617284 13.234568-11.753086 10.567901a71.407407 71.407407 0 0 1-43.358025 18.567901 72.592593 72.592593 0 0 0 84.54321-9.876543l11.654321-10.567901L358.814815 859.259259l23.802469-21.530864 15.012346-13.62963 114.765432-103.901234a24.296296 24.296296 0 0 1 5.333333-3.654321z" fill="#DC4E45" p-id="7611"></path><path d="M506.864198 274.765432A22.814815 22.814815 0 1 1 483.950617 251.950617a22.716049 22.716049 0 0 1 22.913581 22.814815zM603.851852 274.765432a22.716049 22.716049 0 1 1-22.71605-22.814815 22.716049 22.716049 0 0 1 22.71605 22.814815zM551.111111 505.08642a18.17284 18.17284 0 1 1-17.777778-18.074074 18.074074 18.074074 0 0 1 17.777778 18.074074z" fill="#FFFFFF" p-id="7612"></path><path d="M533.037037 572.246914m-18.074074 0a18.074074 18.074074 0 1 0 36.148148 0 18.074074 18.074074 0 1 0-36.148148 0Z" fill="#FFFFFF" p-id="7613"></path><path d="M551.111111 639.407407A18.17284 18.17284 0 1 1 533.333333 621.234568a18.074074 18.074074 0 0 1 17.777778 18.172839zM532.641975 391.802469A75.654321 75.654321 0 0 1 462.716049 345.679012a9.08642 9.08642 0 0 1 4.839507-11.950617 8.987654 8.987654 0 0 1 11.851851 4.839506 57.777778 57.777778 0 0 0 106.469136 0A9.08642 9.08642 0 0 1 602.469136 345.679012a75.654321 75.654321 0 0 1-69.827161 46.123457zM800 777.08642c0 6.617284 0 9.876543-3.45679 13.629629s-6.716049 4.246914-13.333333 4.54321a33.382716 33.382716 0 0 0-35.25926 38.123457c0 6.617284 0 9.876543-3.45679 13.728395s-6.814815 4.246914-13.432099 4.444445a35.555556 35.555556 0 0 0-24.296296 8.395061l14.320988 13.037037a19.753086 19.753086 0 0 1 10.765432-2.271605 33.382716 33.382716 0 0 0 35.259259-38.123456c0-6.617284 0-9.876543 3.45679-13.728395s6.716049-4.148148 13.333334-4.444445A33.382716 33.382716 0 0 0 819.753086 776.296296a22.617284 22.617284 0 0 1 0.987655-9.876543l-14.518519-13.135802a35.061728 35.061728 0 0 0-6.222222 23.802469zM772.54321 539.753086a33.580247 33.580247 0 0 0-12.839506-50.37037c-5.728395-3.358025-8.296296-5.135802-9.876544-9.876543s0-8 3.456791-13.62963A33.283951 33.283951 0 0 0 740.740741 414.814815a19.753086 19.753086 0 0 1-8.395062-7.012346l-18.469136 5.62963A35.753086 35.753086 0 0 0 730.864198 431.604938c5.728395 3.358025 8.296296 5.037037 9.876543 9.876543s0 8-3.45679 13.728396a33.679012 33.679012 0 0 0-5.827161 28.74074 34.271605 34.271605 0 0 0 18.37037 22.123457c5.728395 3.358025 8.296296 5.135802 9.876544 10.37037s0 7.901235-3.45679 13.62963a34.469136 34.469136 0 0 0-5.925926 26.666667l18.469135-6.123457a18.567901 18.567901 0 0 1 3.753087-10.864198zM823.012346 523.45679A33.382716 33.382716 0 0 0 809.876543 474.074074c-5.728395-3.45679-8.296296-5.135802-9.876543-10.37037s0-8 3.555556-13.728395a33.382716 33.382716 0 0 0-12.839507-50.17284 20.938272 20.938272 0 0 1-8.296296-6.91358l-18.469136 5.728395a35.654321 35.654321 0 0 0 16.987655 17.679012c5.62963 3.358025 8.296296 5.037037 9.876543 9.876544s0 8-3.45679 13.629629a33.975309 33.975309 0 0 0-5.62963 28.246914A34.567901 34.567901 0 0 0 800 490.074074c5.728395 3.358025 8.395062 5.135802 9.876543 10.37037s0 7.901235-3.45679 13.62963a34.864198 34.864198 0 0 0-6.024691 25.876543l18.567901-6.123457a19.753086 19.753086 0 0 1 4.049383-10.37037zM759.703704 743.308642c0 6.617284 0 9.876543-3.45679 13.728395s-6.716049 4.148148-13.432099 4.444444a33.382716 33.382716 0 0 0-35.160494 38.518519c0 6.617284 0 9.876543-3.45679 13.728395s-6.814815 4.246914-13.432099 4.444445a36.641975 36.641975 0 0 0-22.617284 6.91358l14.814815 13.432099a31.506173 31.506173 0 0 1 8.592593-1.185186 33.382716 33.382716 0 0 0 35.259259-38.123456 15.703704 15.703704 0 0 1 3.45679-13.728396c3.654321-3.950617 6.716049-4.148148 13.333333-4.444444a33.382716 33.382716 0 0 0 35.25926-38.123457 17.283951 17.283951 0 0 1 2.172839-12.049382l-14.222222-12.938272a34.567901 34.567901 0 0 0-7.111111 25.382716zM321.679012 847.111111c-3.654321-3.950617-3.753086-7.111111-3.45679-13.728395a33.481481 33.481481 0 0 0-35.259259-38.123457c-6.617284 0-9.876543 0-13.432099-4.54321s-3.654321-7.012346-3.358024-13.629629a35.654321 35.654321 0 0 0-6.222223-24.592593l-14.320987 12.938272a19.753086 19.753086 0 0 1 1.28395 10.864197 33.382716 33.382716 0 0 0 35.160494 38.123457c6.716049 0 9.876543 0.493827 13.432099 4.444445s3.654321 7.111111 3.45679 13.728395a33.283951 33.283951 0 0 0 35.259259 38.123456 21.62963 21.62963 0 0 1 9.876543 1.876544L358.814815 859.259259a35.950617 35.950617 0 0 0-23.703704-7.802469c-6.716049-0.098765-9.777778-0.395062-13.432099-4.345679zM362.37037 813.333333c-3.654321-3.950617-3.654321-7.111111-3.45679-13.728395a33.382716 33.382716 0 0 0-35.259259-38.123457c-6.617284 0-9.876543 0-13.333333-4.444444s-3.753086-7.111111-3.45679-13.728395a34.17284 34.17284 0 0 0-7.703704-26.37037l-14.222222 12.839506a16.493827 16.493827 0 0 1 2.765432 12.740741A33.382716 33.382716 0 0 0 322.962963 780.246914c6.617284 0 9.876543 0 13.333333 4.444444a15.703704 15.703704 0 0 1 3.45679 13.728395 33.382716 33.382716 0 0 0 35.555556 38.518519 35.654321 35.654321 0 0 1 7.604938 0.888888l15.012346-13.629629a36.938272 36.938272 0 0 0-21.827161-6.419753c-6.91358-0.197531-10.074074-0.493827-13.728395-4.444445z" fill="#FFFFFF" p-id="7614"></path></svg>