<svg t="1670557716131" class="icon" viewBox="0 0 1024 1024" version="1.1" xmlns="http://www.w3.org/2000/svg" p-id="4075" width="200" height="200"><path d="M503.808 182.272m-55.296 0a55.296 55.296 0 1 0 110.592 0 55.296 55.296 0 1 0-110.592 0Z" fill="#A2212D" p-id="4076"></path><path d="M563.2 270.336h-118.784c-12.288 0-24.576-10.24-24.576-24.576v-36.864c0-12.288 10.24-24.576 24.576-24.576h118.784c12.288 0 24.576 10.24 24.576 24.576V245.76c0 14.336-10.24 24.576-24.576 24.576z" fill="#F1ECE4" p-id="4077"></path><path d="M507.904 575.488m-339.968 0a339.968 339.968 0 1 0 679.936 0 339.968 339.968 0 1 0-679.936 0Z" fill="#A2212D" p-id="4078"></path></svg>