<svg t="1670559691884" class="icon" viewBox="0 0 1189 1024" version="1.1" xmlns="http://www.w3.org/2000/svg" p-id="44006" width="200" height="200"><path d="M1020.277005 483.212743c-29.424385-20.817252-43.235832-57.847941-33.227537-92.47664 19.616257-68.456734-5.004147-145.120268-66.455075-188.356101-78.064696-54.845453-187.755602-39.032348-242.200723 40.233344L153.558713 988.631608c-26.421897 37.631187-78.86536 46.638652-116.296381 20.216755-37.631187-26.421897-46.638652-78.86536-20.216755-116.296381L554.090653 128.919122c1.401161-2.001659 3.002488-4.003318 4.603816-5.804811 1.000829-1.601327 2.001659-3.202654 3.202654-4.603815C613.539922 58.861061 683.597983 19.028049 762.263176 5.216603c90.274815-15.813105 181.350294 4.603815 256.412502 57.44761s124.903514 131.508988 140.716619 221.783803c9.007465 51.642799 6.205143 103.285598-7.606303 152.326241-16.013271 56.646946-83.469175 80.466687-131.508989 46.438486z" fill="#CF1727" p-id="44007"></path><path d="M19.047236 889.74966l214.377666-14.61211M59.080414 832.902548l214.577831-15.012442 28.623722-40.633675-211.375177 10.208461zM335.309338 730.417614l-216.179158 17.0141 12.009953-17.0141 217.780486-18.815594zM220.814451 602.911943l221.383471-24.620404 18.615428-26.421897-219.381813 21.818082zM618.544069 328.884843l-226.988116 31.225879-43.035666 61.250761 223.785462-27.823058zM481.830768 231.604222l207.37186-3.202654 24.620404-23.419409-211.575343-2.401991zM602.130466 79.077816l145.720767 105.687588s23.419409-9.607963 41.034007-12.210119l-147.322094-121.700859L602.130466 79.077816zM798.493202 0.812954l47.038984 171.341999s28.823888 0.600498 66.455074 24.82057l14.011612-180.54963c0.200166 0-61.651093-20.016589-127.50567-15.612939zM1055.906533 92.689096l-114.294721 127.305505s29.22422 30.825547 37.030689 53.444291l153.126904-76.463369c0.200166 0-30.425215-66.855406-75.862872-104.286427zM990.85262 373.121504l173.74399-28.823887-0.800663 24.420238-178.14764 27.222561z" fill="#FFFFFF" p-id="44008"></path></svg>