<svg t="1670557780172" class="icon" viewBox="0 0 1024 1024" version="1.1" xmlns="http://www.w3.org/2000/svg" p-id="5078" width="200" height="200"><path d="M437.333333 827.358025a348.54321 348.54321 0 0 0 348.54321-348.54321H88.888889a348.54321 348.54321 0 0 0 348.444444 348.54321z" fill="#6ADDD6" p-id="5079"></path><path d="M437.333333 653.037037a348.246914 348.246914 0 0 1-301.728395-174.222222H88.888889a348.54321 348.54321 0 1 0 696.987654 0h-46.716049a348.345679 348.345679 0 0 1-301.827161 174.222222z" fill="#00C4B8" p-id="5080"></path><path d="M795.555556 402.666667v74.172839h107.851851l-107.851851-74.172839z" fill="#6ADDD6" p-id="5081"></path><path d="M795.555556 476.839506v74.074074l107.851851-74.074074H795.555556z" fill="#00C4B8" p-id="5082"></path><path d="M635.061728 517.530864H252.049383a205.333333 205.333333 0 0 0 410.567901 0z" fill="#FF6B5B" p-id="5083"></path><path d="M457.382716 665.975309a205.333333 205.333333 0 0 1-197.530864-148.148149h-8.197531a205.333333 205.333333 0 0 0 410.567901 0h-8.098765a205.333333 205.333333 0 0 1-196.740741 148.148149z" fill="#DC4E45" p-id="5084"></path><path d="M819.753086 476.839506a167.901235 167.901235 0 1 1-167.901234-167.901234 168.395062 168.395062 0 0 1 167.901234 167.901234z" fill="#FF6B5B" p-id="5085"></path><path d="M819.753086 476.839506a167.901235 167.901235 0 1 1-167.901234-167.901234 168.395062 168.395062 0 0 1 167.901234 167.901234z" fill="#FF6B5B" p-id="5086"></path><path d="M712.493827 577.580247a167.901235 167.901235 0 0 1-150.716049-243.259259 167.901235 167.901235 0 1 0 240.197531 217.28395 166.518519 166.518519 0 0 1-89.481482 25.975309z" fill="#DC4E45" p-id="5087"></path><path d="M742.024691 425.481481a48.790123 48.790123 0 1 1-48.790123-48.790123 48.790123 48.790123 0 0 1 48.790123 48.790123z" fill="#FFFFFF" p-id="5088"></path><path d="M719.012346 425.481481a25.777778 25.777778 0 1 1-25.777778-25.777777 25.777778 25.777778 0 0 1 25.777778 25.777777z" fill="#3B5355" p-id="5089"></path></svg>