<svg t="1670557686284" class="icon" viewBox="0 0 1024 1024" version="1.1" xmlns="http://www.w3.org/2000/svg" p-id="3588" width="200" height="200"><path d="M290.795656 703.094675l-0.715444 0.542517a1652.990305 1652.990305 0 0 1 0.712053-0.542517z m-15.753325 254.898014l0.671364 0.501828z m-2.346384-1.786914l1.559735 1.196927a179.24747 179.24747 0 0 1-1.559735-1.193536z m-2.363338-1.858119l1.447841 1.149457a179.698437 179.698437 0 0 1-1.447841-1.149457z m-2.353165-1.915762l1.556344 1.274914a179.979868 179.979868 0 0 1-1.556344-1.274914z m-1.898808-1.593642l0.922278 0.779867-0.922278-0.779867z m-2.170066-1.881855l0.634066 0.552689a180.902146 180.902146 0 0 1-0.634066-0.552689z m-2.448106-2.193801l0.915496 0.830729-0.915496-0.830729z m-3.407683-3.190675l2.081908 1.966622a182.512742 182.512742 0 0 1-4.357086-4.194331l2.275178 2.227709z m20.140928-231.044239c-1.892026 1.403762-3.797616 2.814305-5.720159 4.224848l4.096-3.017749z m4.964026-3.692503l-2.444715 1.824212z m185.049007-210.29298c7.151046-71.123921 7.151046-169.492344 0-295.09849h340.859761l3.119471 350.601324a194.966887 194.966887 0 0 1-56.750623 139.247046l-246.166887 247.414676c-63.06755 63.386278-161.768265 69.750675-231.986861 18.933828 58.368-17.214728 100.95894-71.083232 100.95894-134.869616 0-56.03857-32.866331-104.417483-80.428079-127.016689l-3.461934 2.644768 3.519576-2.688847c108.560954-83.076238 165.342093-149.463311 170.336636-199.16461z" fill="#C40000" p-id="3589"></path><path d="M805.698119 203.443709l3.099126 350.987867a194.966887 194.966887 0 0 1-56.296265 138.779126l-244.634278 247.499444c-48.996026 49.565669-119.967364 64.220397-181.953272 43.781086 62.606411 10.399364 128.905325-9.992477 175.042967-59.731073l212.496954-229.064053a194.966887 194.966887 0 0 0 52.020556-134.316927l-3.129642-354.588821-295.078146 0.00339a4256.72053 4256.72053 0 0 0-0.18649-3.350039h338.61849z" fill="#9E0000" p-id="3590"></path><path d="M469.158146 225.361377l-1.152848-22.795867h339.825589l0.386543 43.61494-339.059284-20.819073z" fill="#9E0000" p-id="3591"></path><path d="M297.79751 698.490066c47.538013 22.528 80.394172 70.764503 80.394172 126.630146 0 63.599894-42.577377 117.309033-100.925033 134.459338a180.471523 180.471523 0 0 1-21.632848-18.381139c-57.811921-57.506755-58.062834-150.99253-0.556079-208.807841a147.656053 147.656053 0 0 1 17.343576-14.919206 1692.136265 1692.136265 0 0 0 21.870199-16.312794zM720.970596 721.194384l2.292132 1.030782c-0.766305-0.335682-1.529219-0.678146-2.288741-1.030782z m-2.682066-1.271523l2.18702 1.040954c-0.732397-0.339073-1.461404-0.688318-2.18702-1.040954z m-2.678676-1.342729l2.193802 1.105378a137.517775 137.517775 0 0 1-2.193802-1.105378z m-2.587126-1.363072l2.27857 1.203708a137.761907 137.761907 0 0 1-2.271788-1.203708h-0.006782z m-4.804662-2.729537a138.138278 138.138278 0 0 0 0.688318 0.406888z m-4.967417-3.099126a138.65706 138.65706 0 0 0 0.18649 0.122067z m61.758728-259.784053l0.952795 109.357775 0.006782 2.237881a194.966887 194.966887 0 0 1-51.172875 131.126252l-14.071523 15.370172c0.712053 0.488265 1.424106 0.966358 2.146331 1.441059-38.271152-25.186331-63.593113-68.977589-63.593112-118.784 0-73.527947 55.184106-133.947338 125.728212-140.749139z m2.180239-0.193271l-0.294993 0.023735z m2.712583-0.189881l-1.644504 0.108503c0.545907-0.040689 1.095205-0.074596 1.644504-0.108503z m2.353165-0.122066l-1.515655 0.074596c0.508609-0.030517 1.010437-0.054252 1.519046-0.074596z m2.644768-0.09155l-1.580079 0.04747 1.58347-0.04747z m3.39751-0.040689c-0.769695 0-1.536 0.006781-2.298914 0.020345z" fill="#009042" p-id="3592"></path><path d="M778.067073 450.966887c10.256954 0 20.259603 1.125722 29.889271 3.261881l0.851073 99.212715a194.966887 194.966887 0 0 1-56.096212 138.534994L722.903311 722.225166a138.440053 138.440053 0 0 1-22.589033-12.528742l14.071523-15.332874a194.966887 194.966887 0 0 0 51.318676-133.533669l-0.956186-109.225537a139.03343 139.03343 0 0 1 13.318782-0.637457z" fill="#056639" p-id="3593"></path><path d="M432.443338 177.664L425.719523 176.317881l-0.901934 4.251973c-9.629669 44.120159-24.175894 71.195126-43.235178 81.350358l3.26188 5.947338c21.907497-11.674278 37.620132-41.787338 47.599047-90.20355z" fill="#4C3030" p-id="3594"></path><path d="M425.661881 177.786066c9.02951 40.359841 9.02951 70.645828 0.203444 90.769802l6.19486 2.70241c9.517775-21.693881 9.517775-53.312424 0.203444-94.940397l-6.601748 1.468185z" fill="#4C3030" p-id="3595"></path><path d="M415.489695 298.384106m-33.907284 0a33.907285 33.907285 0 1 0 67.814569 0 33.907285 33.907285 0 1 0-67.814569 0Z" fill="#009042" p-id="3596"></path><path d="M413.794331 257.695364c21.531126 0 38.993377 17.458861 38.993378 38.993378s-17.462252 38.993377-38.993378 38.993377c-21.537907 0-38.993377-17.458861-38.993377-38.993377s17.45547-38.993377 38.993377-38.993378z m0 10.28747a28.705907 28.705907 0 1 0 0 57.411815 28.705907 28.705907 0 0 0 0-57.411815z" fill="#4C3030" p-id="3597"></path><path d="M364.628768 284.821192m-47.470198 0a47.470199 47.470199 0 1 0 94.940397 0 47.470199 47.470199 0 1 0-94.940397 0Z" fill="#009042" p-id="3598"></path><path d="M360.787073 338.937219c1.274914 0.09155 2.553219 0.135629 3.841695 0.135629 29.960477 0 54.251656-24.287788 54.251656-54.251656s-24.291179-54.251656-54.251656-54.251656c-29.963868 0-54.251656 24.287788-54.251655 54.251656 0 7.781722 1.641113 15.343046 4.777536 22.29404a6.859444 6.859444 0 1 0 12.505007-5.642172A40.359841 40.359841 0 0 1 324.092609 284.821192c0-22.385589 18.147179-40.532768 40.536159-40.532768 22.385589 0 40.532768 18.147179 40.532768 40.532768s-18.147179 40.532768-40.532768 40.532768c-0.966358 0-1.929325-0.033907-2.882119-0.101722a6.859444 6.859444 0 0 0-0.959576 13.684981z" fill="#4C3030" p-id="3599"></path><path d="M635.069881 237.367947l0.508609-0.016954c3.577219 0 6.510199 2.753272 6.767894 6.242332l0.020344 0.505218v34.524397l23.158676-23.016265a6.818755 6.818755 0 0 1 9.16853-0.393324l0.430622 0.393324c2.51253 2.498967 2.644768 6.462728 0.396716 9.114279l-0.396716 0.430622-30.828503 30.642013c-0.159364 1.220662-0.654411 2.407417-1.48853 3.407683l-0.440795 0.484874v34.480318l33.486835-19.218649 11.260609-41.773775a6.791629 6.791629 0 0 1 7.822411-4.88604l0.491655 0.111894a6.74755 6.74755 0 0 1 4.916557 7.77155l-0.115285 0.491655-7.751205 28.746596 28.366834-16.275496a6.815364 6.815364 0 0 1 8.988821 2.020874l0.284821 0.447576a6.723815 6.723815 0 0 1-2.034437 8.93457l-0.450967 0.28143-30.089324 17.265589 31.638887 8.425961a6.74755 6.74755 0 0 1 4.916557 7.771549l-0.115285 0.491656a6.791629 6.791629 0 0 1-7.81902 4.882649l-0.495046-0.111894-42.119629-11.213139c-1.142675 0.471311-2.42098 0.637457-3.709457 0.42045l-0.644239-0.135629-30.041854 17.235073 33.480053 19.215258 42.041642-11.189404a6.798411 6.798411 0 0 1 8.164874 4.289272l0.149192 0.481483a6.740768 6.740768 0 0 1-4.316397 8.114013l-0.484874 0.149192-28.922914 7.696954 28.366834 16.282278a6.727205 6.727205 0 0 1 2.732928 8.74808l-0.247524 0.46792a6.811974 6.811974 0 0 1-8.805721 2.715974l-0.467921-0.247523-30.085934-17.262199 8.476821 31.442225a6.740768 6.740768 0 0 1-4.316397 8.117404l-0.484874 0.145801a6.798411 6.798411 0 0 1-8.164874-4.289271l-0.149192-0.481484-11.284345-41.858543a6.713642 6.713642 0 0 1-2.254834-3.058437l-0.169536-0.549298-30.048636-17.241854v38.433907l32.761218 32.561166c2.51253 2.495576 2.644768 6.462728 0.396716 9.114278l-0.396716 0.427232a6.818755 6.818755 0 0 1-9.16853 0.393324l-0.430622-0.393324-23.158676-23.023047v32.557775c0 3.560265-2.770225 6.472901-6.283019 6.730596l-0.50861 0.016954a6.771285 6.771285 0 0 1-6.767894-6.242331l-0.016953-0.505219v-34.653245l-25.267709 25.118517a6.818755 6.818755 0 0 1-9.16853 0.393324l-0.430622-0.393324a6.717033 6.717033 0 0 1-0.396716-9.114278l0.396716-0.427232 34.86347-34.653245v-36.341828l-33.483444 19.215258-11.989616 44.482967a6.791629 6.791629 0 0 1-7.82241 4.882649l-0.491656-0.111894a6.74755 6.74755 0 0 1-4.916556-7.77494l0.115285-0.488265 8.476821-31.449007-28.363444 16.278888a6.815364 6.815364 0 0 1-8.992212-2.020875l-0.28143-0.447576a6.723815 6.723815 0 0 1 2.034437-8.934569l0.450967-0.281431 30.187655-17.326622-34.514225-9.188874a6.74755 6.74755 0 0 1-4.916556-7.774941l0.115285-0.491655a6.791629 6.791629 0 0 1 7.82241-4.882649l0.491656 0.111894 47.629563 12.688106 31.662622-18.174305-33.483443-19.215258-44.754226 11.921801a6.798411 6.798411 0 0 1-8.164874-4.289272l-0.149192-0.481483a6.740768 6.740768 0 0 1 4.316397-8.117404l0.484875-0.149192 31.635496-8.42596-28.363443-16.275497a6.727205 6.727205 0 0 1-2.732928-8.748079l0.247524-0.467921a6.811974 6.811974 0 0 1 8.802331-2.715974l0.471311 0.247524 30.184265 17.319841-9.243126-34.304a6.740768 6.740768 0 0 1 4.316397-8.114014l0.484875-0.149192a6.798411 6.798411 0 0 1 8.164874 4.289272l0.149192 0.481483 12.75592 47.33457 31.662623 18.174305V295.735947l-30.770861-30.584371a6.717033 6.717033 0 0 1-0.396715-9.114278l0.396715-0.430623a6.818755 6.818755 0 0 1 9.16853-0.393324l0.434013 0.393324 21.168318 21.039471V244.098543c0-3.560265 2.770225-6.472901 6.28302-6.730596l0.508609-0.016954-0.508609 0.016954z" fill="#FFFFFF" p-id="3600"></path><path d="M802.605775 209.875921l3.058437 344.959152a185.66951 185.66951 0 0 1-53.865113 132.42151l-246.18045 248.099602c-66.783788 67.30596-175.483762 67.729801-242.789722 0.949404l-0.471311-0.474702c-56.075868-56.075868-56.075868-146.994861 0-203.070728a143.587179 143.587179 0 0 1 18.567629-15.665166l20.215523-14.359735c18.584583-13.267921 29.950305-21.592159 34.236186-25.088a6.781457 6.781457 0 1 0-8.568371-10.511258l-1.658066 1.315603-2.220928 1.698755c-8.012291 6.069404-24.684503 18.072583-49.840317 35.877298a157.150093 157.150093 0 0 0-20.320636 17.140132c-60.761854 60.761854-61.368795 158.892927-1.824212 220.400742l2.312477 2.342993c72.642967 72.076715 189.931656 71.622358 261.991417-0.996874l246.177059-248.102993a199.232424 199.232424 0 0 0 57.801749-142.098649l-3.177113-358.4H462.319046l0.878199 15.563443 0.450967 8.419179c6.174517 117.231046 5.869351 209.635179-0.898543 277.134411-3.160159 31.51343-29.194172 71.388397-78.42755 119.028132a6.781457 6.781457 0 0 0 9.436398 9.748345c51.328848-49.674172 78.929377-91.949775 82.486251-127.423577l0.474702-4.882649c6.33049-67.255099 6.530543-157.716344 0.623894-271.448159l-0.674755-12.579602h325.937166z" fill="#4C3030" p-id="3601"></path><path d="M347.675126 657.801325m-6.781457 0a6.781457 6.781457 0 1 0 13.562914 0 6.781457 6.781457 0 1 0-13.562914 0Z" fill="#4C3030" p-id="3602"></path><path d="M408.708238 27.125828m88.158941 0l284.821192 0q88.15894 0 88.15894 88.15894l0 3.390729q0 88.15894-88.15894 88.15894l-284.821192 0q-88.15894 0-88.158941-88.15894l0-3.390729q0-88.15894 88.158941-88.15894Z" fill="#009042" p-id="3603"></path><path d="M869.847311 115.284768v6.781457c0 48.690861-39.47147 88.15894-88.15894 88.158941h-284.821192c-48.690861 0-88.15894-39.468079-88.158941-88.158941v-6.781457c0-5.798146 0.55947-11.464053 1.62755-16.953642 7.907179 40.580238 43.642066 71.205298 86.531391 71.205298h284.821192c42.889325 0 78.624212-30.62506 86.531391-71.205298 1.064689 5.486199 1.62755 11.155497 1.627549 16.953642z" fill="#056639" p-id="3604"></path><path d="M651.643762 203.49796h-157.757034c-45.178066 0-81.804715-36.484238-81.804715-81.492768v-6.659391c0-45.00853 36.626649-81.492768 81.804715-81.492768h287.387974c45.181457 0 81.804715 36.484238 81.804715 81.492768v6.659391c0 45.00853-36.623258 81.492768-81.804715 81.492768h-15.773669c-2.804132 0-5.079311 2.265007-5.079311 5.058967S762.696901 213.615894 765.501033 213.615894h15.773669c50.789722 0 91.963338-41.014252 91.963338-91.610702v-6.659391C873.23804 64.749351 832.064424 23.735099 781.274702 23.735099h-287.387974c-50.789722 0-91.959947 41.014252-91.959947 91.610702v6.659391c0 50.59645 41.170225 91.610702 91.959947 91.610702h157.757034c2.807523 0 5.079311-2.265007 5.079311-5.058967s-2.271788-5.058967-5.079311-5.058967z" fill="#4C3030" p-id="3605"></path><path d="M337.50294 322.119205m-6.781457 0a6.781457 6.781457 0 1 0 13.562914 0 6.781457 6.781457 0 1 0-13.562914 0Z" fill="#4C3030" p-id="3606"></path></svg>