<?xml version="1.0" encoding="iso-8859-1"?>
<!-- Generator: Adobe Illustrator 23.0.3, SVG Export Plug-In . SVG Version: 6.00 Build 0)  -->
<svg version="1.1" id="&#x56FE;&#x5C42;_1" xmlns="http://www.w3.org/2000/svg" xmlns:xlink="http://www.w3.org/1999/xlink" x="0px"
     y="0px" viewBox="0 0 1920 1920" style="enable-background:new 0 0 1920 1920;" xml:space="preserve">
<g>
	<g>
		<defs>
			<path id="XMLID_250_" d="M1534.852,1455.096c-380.27,0-760.54,0-1140.81,0c-34.03-77.779-68.773-176.891-90.715-294.707
				c-36.844-197.833-22.393-366.799-2.749-480.995c441.663,0,883.326,0,1324.989,0c13.598,109.816,20.551,256.33-2.749,426.016
				C1603.599,1245.378,1568.978,1363.382,1534.852,1455.096z"/>
		</defs>
        <use xlink:href="#XMLID_250_"  style="overflow:visible;fill:#C72F2D;"/>
        <clipPath id="XMLID_2_">
			<use xlink:href="#XMLID_250_"  style="overflow:visible;"/>
		</clipPath>
        <path style="clip-path:url(#XMLID_2_);fill:#A7272E;" d="M49.05,1281.338c0,0,674.177,54.527,1014.359-145.23
			s426.773-618.942,426.773-618.942s358.737,166.614,358.737,224.863c0,58.25-165.65,547.406-166.324,605.898
			s157.537,223.465-42.178,286.329c-199.715,62.864-1597.551-165.38-1597.551-165.38L49.05,1281.338z"/>

        <path style="clip-path:url(#XMLID_2_);fill:#F8DC85;stroke:#C6612C;stroke-width:8.1323;stroke-linecap:round;stroke-linejoin:round;stroke-miterlimit:10;" d="
			M98.531,1011.519c0,0,228.849,38.234,500.994-91.3s457.698-443.658,457.698-443.658l92.777,202.833
			c0,0-191.739,291.35-550.475,373.115S-0.43,1094.692-0.43,1094.692L98.531,1011.519z"/>

        <path style="clip-path:url(#XMLID_2_);fill:#F8DC85;stroke:#C6612C;stroke-width:8.1323;stroke-linecap:round;stroke-linejoin:round;stroke-miterlimit:10;" d="
			M312.049,1187.879c125.865,1.791,315.173-11.767,526.13-92.247c359.226-137.044,565.608-385.88,649.941-501.524
			c87.966,32.987,175.932,65.974,263.898,98.962c-70.186,85.463-179.645,201.344-336.058,309.256
			c-268.356,185.143-525.126,243.479-641.19,263.898c-215.245,37.868-401.574,25.377-536.547,3.881L312.049,1187.879z"/>

        <use xlink:href="#XMLID_250_"  style="overflow:visible;fill:none;stroke:#6D3437;stroke-width:8.1323;stroke-linecap:round;stroke-linejoin:round;stroke-miterlimit:10;"/>
	</g>

    <path style="fill:#04BE69;stroke:#6D3437;stroke-width:8.1323;stroke-linecap:round;stroke-linejoin:round;stroke-miterlimit:10;" d="
		M1682.594,594.714H238.223c21.439-22.057,48.543-46.653,81.941-70.704c27.443-19.762,53.748-35.276,77.3-47.449
		c184.202-7.632,375.649-11.813,573.855-11.654c190.422,0.153,374.576,4.301,552.033,11.654
		c24.42,10.965,54.321,26.941,85.721,50.197C1640.756,550.225,1664.917,574.402,1682.594,594.714z"/>

    <path style="fill:#194C2F;stroke:#6D3437;stroke-width:8.1323;stroke-linecap:round;stroke-linejoin:round;stroke-miterlimit:10;" d="
		M312.049,570.319c9.174-11.304,21.947-24.901,39.041-38.062c20.139-15.504,39.524-25.205,54.438-31.297
		c179.136-7.751,365.611-12.06,558.919-11.999c190.418,0.06,374.194,4.355,550.844,11.999c12.742,3.875,30.863,10.984,49.8,24.425
		c21.932,15.566,35.759,33.095,43.68,44.934c-201.297,8.385-410.043,13.168-625.768,13.481
		C751.163,584.136,527.319,579.285,312.049,570.319z"/>
    <g>
		<defs>
			<path id="XMLID_249_" d="M1656.068,790.685H264.75c-9.153-24.081-18.579-55.292-23.961-92.461
				c-5.907-40.791-5.136-76.276-2.566-103.51c229.704,0,459.409,0,689.113,0c251.753,0,503.505,0,755.258,0
				c1.992,29.638,1.827,66.975-4.797,109.352C1672.537,737.714,1664.411,766.824,1656.068,790.685z"/>
		</defs>
        <use xlink:href="#XMLID_249_"  style="overflow:visible;fill:#04BE69;"/>
        <clipPath id="XMLID_3_">
			<use xlink:href="#XMLID_249_"  style="overflow:visible;"/>
		</clipPath>
        <path style="clip-path:url(#XMLID_3_);fill:#296E4A;" d="M197.493,744.612c256.181-5.372,463.465-4.112,603.392-2.062
			c391.08,5.731,602.801,22.718,698.231-109.958c34.783-48.359,43.731-102.161,45.865-139.984
			c63.515-5.349,127.029-10.698,190.544-16.048c15.806,72.046,31.613,144.092,47.419,216.138l-57.728,152.936
			c0,0-799.941,41.234-806.127,43.296C912.905,890.993,141.564,905.788,197.493,744.612z"/>

        <use xlink:href="#XMLID_249_"  style="overflow:visible;fill:none;stroke:#6D3437;stroke-width:8.1323;stroke-linecap:round;stroke-linejoin:round;stroke-miterlimit:10;"/>
	</g>

    <circle style="fill:#F8DC85;stroke:#C6612C;stroke-width:8.1323;stroke-linecap:round;stroke-linejoin:round;stroke-miterlimit:10;" cx="1397.405" cy="1218.804" r="55.666"/>

    <circle style="fill:#F8DC85;stroke:#C6612C;stroke-width:8.1323;stroke-linecap:round;stroke-linejoin:round;stroke-miterlimit:10;" cx="1257.896" cy="1258.664" r="39.86"/>
</g>
</svg>
