<svg t="1670554740463" class="icon" viewBox="0 0 1024 1024" version="1.1" xmlns="http://www.w3.org/2000/svg" p-id="36239" width="200" height="200"><path d="M42.666667 512c0 259.206667 210.126667 469.333333 469.333333 469.333333s469.333333-210.126667 469.333333-469.333333S771.206667 42.666667 512 42.666667 42.666667 252.793333 42.666667 512z m500.493333-239.213333l176 266.666666A37.333333 37.333333 0 0 1 688 597.333333H336.033333a37.333333 37.333333 0 0 1-31.16-57.893333l176-266.666667a37.333333 37.333333 0 0 1 62.32 0zM704 640a21.333333 21.333333 0 0 1 0 42.666667H320a21.333333 21.333333 0 0 1 0-42.666667z" fill="#d81e06" p-id="36240"></path></svg>