<svg t="1670404600884" class="icon" viewBox="0 0 1024 1024" version="1.1" xmlns="http://www.w3.org/2000/svg" p-id="2610" width="200" height="200"><path d="M522 587.8v324.62c0 5.52-4.48 10-10 10s-10-4.48-10-10V587.8c0-5.52 4.48-10 10-10s10 4.48 10 10zM594.22 587.8v324.62c0 5.52-4.48 10-10 10s-10-4.48-10-10V587.8c0-5.52 4.48-10 10-10s10 4.48 10 10zM666.44 587.8v324.62c0 5.52-4.46 10-10 10-5.52 0-10-4.48-10-10V587.8c0-5.52 4.48-10 10-10 5.54 0 10 4.48 10 10zM738.68 587.8v324.62c0 5.52-4.48 10-10 10s-10-4.48-10-10V587.8c0-5.52 4.48-10 10-10s10 4.48 10 10zM810.9 587.8v324.62c0 5.52-4.48 10-10 10s-10-4.48-10-10V587.8c0-5.52 4.48-10 10-10s10 4.48 10 10zM233.1 587.8v324.62c0 5.52-4.48 10-10 10s-10-4.48-10-10V587.8c0-5.52 4.48-10 10-10s10 4.48 10 10zM305.32 587.8v324.62c0 5.52-4.48 10-10 10s-10-4.48-10-10V587.8c0-5.52 4.48-10 10-10s10 4.48 10 10zM377.54 587.8v324.62c0 5.52-4.46 10-10 10-5.52 0-10-4.48-10-10V587.8c0-5.52 4.48-10 10-10 5.54 0 10 4.48 10 10zM449.78 587.8v324.62c0 5.52-4.48 10-10 10s-10-4.48-10-10V587.8c0-5.52 4.48-10 10-10s10 4.48 10 10z" fill="#FFFFFF" p-id="2611"></path><path d="M888 111.26c5.52 0 10-4.48 10-10V47.16c0-5.52-4.48-10-10-10H136c-5.52 0-10 4.48-10 10v54.1c0 5.52 4.48 10 10 10h366v52.22h-23.5c-18.92 0-34.3 15.4-34.3 34.3 0 18.92 15.38 34.3 34.3 34.3H502v29.5c-26.66 4.74-46.98 28.08-46.98 56.08 0 6.32 1.06 12.4 2.96 18.1L131.2 514.12c-0.12 0.06-0.22 0.16-0.34 0.24-0.32 0.18-0.6 0.38-0.9 0.6-0.24 0.2-0.48 0.38-0.72 0.6-0.24 0.22-0.46 0.46-0.68 0.7-0.2 0.24-0.42 0.48-0.6 0.74-0.2 0.26-0.36 0.54-0.52 0.8-0.18 0.28-0.32 0.56-0.46 0.84-0.14 0.3-0.26 0.6-0.36 0.92-0.12 0.3-0.22 0.6-0.3 0.9-0.06 0.32-0.12 0.62-0.16 0.94-0.06 0.34-0.1 0.7-0.12 1.06 0 0.14-0.04 0.28-0.04 0.42v454.46c0 5.52 4.48 10 10 10h752c5.52 0 10-4.48 10-10V522.88c0-0.18-0.04-0.34-0.06-0.52 0-0.3-0.04-0.58-0.08-0.86-0.06-0.38-0.12-0.76-0.22-1.12-0.06-0.24-0.14-0.48-0.22-0.72-0.12-0.38-0.26-0.74-0.44-1.08-0.1-0.24-0.24-0.46-0.36-0.68-0.2-0.32-0.4-0.64-0.62-0.96-0.16-0.22-0.34-0.42-0.52-0.62-0.24-0.28-0.5-0.56-0.78-0.8-0.2-0.18-0.4-0.36-0.62-0.52a10.5 10.5 0 0 0-0.98-0.66c-0.12-0.08-0.2-0.16-0.32-0.22l-326.76-178.36c1.9-5.7 2.96-11.78 2.96-18.1 0-5.52-4.48-10-10-10s-10 4.48-10 10c0 20.4-16.58 36.98-36.98 36.98-10.34 0-19.7-4.28-26.42-11.16l31.22-17.04a10 10 0 0 0 3.98-13.56 10.012 10.012 0 0 0-13.58-4l-31.22 17.06c-0.6-2.68-0.96-5.42-0.96-8.28 0-20.38 16.6-36.98 36.98-36.98 5.52 0 10-4.48 10-10v-38.6h23.5c18.92 0 34.3-15.38 34.3-34.3 0-18.9-15.38-34.3-34.3-34.3H522V111.26h366z m-10 856.08H146V532.88h732v434.46zM512 374.64c17.94 0 33.96-8.34 44.42-21.34l292.38 159.58H175.2l292.38-159.58c10.46 13 26.48 21.34 44.42 21.34zM852.66 57.16H878v34.1h-59.44l34.1-34.1z m-77.42 0h49.14l-34.1 34.1h-49.14l34.1-34.1z m-77.44 0h49.16l-34.1 34.1h-49.16l34.1-34.1z m-77.42 0h49.14l-34.1 34.1h-49.14l34.1-34.1zM146 91.26V57.16h58.94L170.84 91.26H146z m53.12 0l34.1-34.1h49.14l-34.1 34.1H199.12z m77.42 0l34.1-34.1h49.16l-34.1 34.1h-49.16z m77.44 0l34.1-34.1h49.14l-34.08 34.1h-49.16z m126.58 0h-49.14l34.08-34.1h49.16l-34.1 34.1z m64.94 92.22c7.88 0 14.3 6.42 14.3 14.3 0 7.9-6.42 14.3-14.3 14.3h-67c-7.88 0-14.3-6.4-14.3-14.3 0-7.88 6.42-14.3 14.3-14.3h67z m-36.66-92.22l34.1-34.1h49.16L558 91.26h-49.16z" fill="#23130D" p-id="2612"></path><path d="M824.38 57.16l-17.06 17.06-17.04 17.04h-49.14l34.1-34.1zM669.52 57.16l-17.06 17.06-17.04 17.04h-49.14l17.04-17.04 17.06-17.06zM514.66 57.16l-17.06 17.06-17.04 17.04h-49.14l17.04-17.04 17.04-17.06zM359.8 57.16l-17.06 17.06-17.04 17.04h-49.16l17.04-17.04 17.06-17.06zM204.94 57.16L170.84 91.26H146V57.16z" fill="#E1E1E5" p-id="2613"></path><path d="M282.36 57.16l-34.1 34.1H199.12l34.1-34.1zM437.22 57.16l-17.04 17.06-17.04 17.04h-49.16l34.1-34.1zM592.1 57.16L558 91.26h-49.16l34.1-34.1zM746.96 57.16l-34.1 34.1h-49.16l17.04-17.04 17.06-17.06zM878 57.16v34.1h-59.44l17.04-17.04 17.06-17.06z" fill="#F9C139" p-id="2614"></path><path d="M559.8 197.78c0 7.9-6.42 14.3-14.3 14.3h-67c-7.88 0-14.3-6.4-14.3-14.3 0-7.88 6.42-14.3 14.3-14.3h67c7.88 0 14.3 6.42 14.3 14.3z" fill="#E1E1E5" p-id="2615"></path><path d="M559.8 197.78c0 2.6-0.7 5.06-1.92 7.16a14.306 14.306 0 0 0-12.38-7.16h-67c-5.28 0-9.9 2.88-12.38 7.16a14.246 14.246 0 0 1-1.92-7.16c0-7.88 6.42-14.3 14.3-14.3h67c7.88 0 14.3 6.42 14.3 14.3z" opacity=".2" p-id="2616"></path><path d="M146 532.88v434.46h732V532.88H146z m87.1 379.54c0 2.76-1.12 5.28-2.96 7.08-1.8 1.8-4.28 2.92-7.04 2.92-3.58 0-6.7-1.88-8.46-4.7a9.84 9.84 0 0 1-1.54-5.3V587.8c0-1.94 0.56-3.76 1.54-5.3a9.922 9.922 0 0 1 8.46-4.7c2.76 0 5.24 1.12 7.04 2.9a9.96 9.96 0 0 1 2.96 7.1v324.62z m72.22 0a10.004 10.004 0 0 1-15 8.66c-3-1.74-5-4.96-5-8.66V587.8c0-3.7 2-6.92 5-8.66a10.004 10.004 0 0 1 15 8.66v324.62z m72.22 0c0 5.52-4.46 10-10 10-0.24 0-0.48 0-0.72-0.04a9.986 9.986 0 0 1-9.28-9.96V587.8c0-5.28 4.1-9.6 9.28-9.96 0.24-0.04 0.48-0.04 0.72-0.04 5.54 0 10 4.48 10 10v324.62z m72.24 0c0 4.14-2.52 7.7-6.12 9.22a10.004 10.004 0 0 1-13.88-9.22V587.8a10.004 10.004 0 0 1 13.88-9.22c3.6 1.52 6.12 5.08 6.12 9.22v324.62z m72.22 0c0 2.8-1.16 5.32-3 7.14-1.8 1.78-4.28 2.86-7 2.86s-5.2-1.08-7-2.86c-1.84-1.82-3-4.34-3-7.14V587.8c0-2.8 1.16-5.32 3-7.16 1.8-1.76 4.28-2.84 7-2.84s5.2 1.08 7 2.84c1.84 1.84 3 4.36 3 7.16v324.62z m72.22 0a10.004 10.004 0 0 1-13.88 9.22 10.01 10.01 0 0 1-6.12-9.22V587.8c0-4.14 2.52-7.7 6.12-9.22a10.004 10.004 0 0 1 13.88 9.22v324.62z m72.22 0c0 5.26-4.06 9.6-9.26 9.96-0.24 0.04-0.48 0.04-0.74 0.04-5.52 0-10-4.48-10-10V587.8c0-5.52 4.48-10 10-10 0.26 0 0.5 0 0.74 0.04 5.2 0.36 9.26 4.7 9.26 9.96v324.62z m72.24 0c0 3.7-2 6.92-5 8.66a10.004 10.004 0 0 1-15-8.66V587.8a10.004 10.004 0 0 1 15-8.66c3 1.74 5 4.96 5 8.66v324.62z m72.22 0c0 1.94-0.56 3.76-1.54 5.3a9.948 9.948 0 0 1-8.46 4.7c-2.76 0-5.24-1.12-7.04-2.92-1.84-1.8-2.96-4.32-2.96-7.08V587.8c0-2.76 1.12-5.28 2.96-7.1a9.98 9.98 0 0 1 7.04-2.9c3.58 0 6.72 1.88 8.46 4.7 0.98 1.54 1.54 3.36 1.54 5.3v324.62z" fill="#EC7063" p-id="2617"></path><path d="M153.3 532.88h15.5v434.46h-15.5zM183.96 532.88h15.52v434.46h-15.52zM230.14 532.88v47.82a9.98 9.98 0 0 0-7.04-2.9c-3.58 0-6.72 1.88-8.46 4.7v-49.62h15.5zM223.1 922.42c2.76 0 5.24-1.12 7.04-2.92v47.84h-15.5v-49.62a9.948 9.948 0 0 0 8.46 4.7zM245.3 532.88h15.5v434.46h-15.5z" opacity=".1" p-id="2618"></path><path d="M285.32 587.8v324.62c0 3.7 2 6.92 5 8.66v46.26h-15.5V532.88h15.5v46.26c-3 1.74-5 4.96-5 8.66zM305.48 532.88h15.52v434.46h-15.52zM336.16 532.88h15.5v434.46h-15.5zM382.32 532.88v434.46h-15.5v-44.96c0.24 0.04 0.48 0.04 0.72 0.04 5.54 0 10-4.48 10-10V587.8c0-5.52-4.46-10-10-10-0.24 0-0.48 0-0.72 0.04v-44.96h15.5zM397.48 532.88h15.52v434.46h-15.52zM429.78 587.8v324.62a10.004 10.004 0 0 0 13.88 9.22v45.7h-15.5V532.88h15.5v45.7a10.004 10.004 0 0 0-13.88 9.22zM458.82 532.88h15.5v434.46h-15.5zM502 587.8v324.62c0 2.8 1.16 5.32 3 7.14v47.78h-15.52V532.88h15.52v47.76a10.1 10.1 0 0 0-3 7.16z" opacity=".1" p-id="2619"></path><path d="M534.52 532.88v434.46h-15.52v-47.78c1.84-1.82 3-4.34 3-7.14V587.8c0-2.8-1.16-5.32-3-7.16v-47.76h15.52zM549.68 532.88h15.5v434.46h-15.5zM595.84 532.88v434.46h-15.5v-45.7a10.004 10.004 0 0 0 13.88-9.22V587.8a10.004 10.004 0 0 0-13.88-9.22v-45.7h15.5zM611 532.88h15.52v434.46h-15.52zM646.44 587.8v324.62c0 5.52 4.48 10 10 10 0.26 0 0.5 0 0.74-0.04v44.96h-15.5V532.88h15.5v44.96c-0.24-0.04-0.48-0.04-0.74-0.04-5.52 0-10 4.48-10 10zM672.34 532.88h15.5v434.46h-15.5zM703 532.88h15.52v434.46h-15.52zM749.18 532.88v434.46h-15.5v-46.26c3-1.74 5-4.96 5-8.66V587.8c0-3.7-2-6.92-5-8.66v-46.26h15.5z" opacity=".1" p-id="2620"></path><path d="M763.2 532.88h15.5v434.46h-15.5zM809.36 532.88v49.62a9.922 9.922 0 0 0-8.46-4.7c-2.76 0-5.24 1.12-7.04 2.9v-47.82h15.5zM809.36 917.72v49.62h-15.5v-47.84c1.8 1.8 4.28 2.92 7.04 2.92 3.58 0 6.7-1.88 8.46-4.7zM824.52 532.88h15.52v434.46h-15.52zM855.2 532.88h15.5v434.46h-15.5z" opacity=".1" p-id="2621"></path><path d="M146 57.16h58.94l-17.06 17.06H146zM233.22 57.16h49.14l-17.06 17.06h-49.14zM310.64 57.16h49.16l-17.06 17.06h-49.16zM388.08 57.16h49.14l-17.04 17.06h-49.16zM465.5 57.16h49.16l-17.06 17.06h-49.14zM542.94 57.16h49.16l-17.06 17.06h-49.16zM620.38 57.16h49.14l-17.06 17.06h-49.14zM697.8 57.16h49.16l-17.06 17.06h-49.16zM775.24 57.16h49.14l-17.06 17.06h-49.14zM878 57.16v17.06h-42.4l17.06-17.06z" opacity=".2" p-id="2622"></path></svg>