<svg t="1670408460720" class="icon" viewBox="0 0 1024 1024" version="1.1" xmlns="http://www.w3.org/2000/svg" p-id="4443" width="200" height="200"><path d="M776.084211 281.007158v14.659368a107.789474 107.789474 0 0 1-53.894737 93.507369L563.307789 480.902737a107.789474 107.789474 0 0 1-107.789473 0l-199.410527-115.173053a26.893474 26.893474 0 0 1-13.473684-23.120842 19.240421 19.240421 0 0 1 14.874948-18.863158l443.392-102.4A61.332211 61.332211 0 0 1 776.084211 281.007158zM242.634105 886.676211a46.780632 46.780632 0 0 1 34.600421-45.271579l203.937685-54.972632a107.789474 107.789474 0 0 1 56.104421 0l203.991579 54.972632c20.48 5.551158 34.708211 24.090947 34.762105 45.271579a35.84 35.84 0 0 1-35.84 35.947789H278.635789a36.055579 36.055579 0 0 1-36.001684-35.947789z" p-id="4444" fill="#1296db"></path><path d="M694.002526 52.709053h-369.178947c-60.901053 0-110.214737 49.367579-110.214737 110.268631v178.391579l0.215579 7.383579a110.268632 110.268632 0 0 0 54.918737 88.117895l119.430737 68.985263-119.430737 68.985263a110.268632 110.268632 0 0 0-55.134316 95.393684v178.445474c0 60.901053 49.367579 110.268632 110.214737 110.268632h369.178947c60.901053 0 110.268632-49.367579 110.268632-110.268632v-178.391579l-0.269474-7.383579a110.268632 110.268632 0 0 0-54.864842-88.117895l-119.484631-68.985263L749.136842 436.870737a110.268632 110.268632 0 0 0 55.134316-95.447579V162.977684c0-60.901053-49.367579-110.268632-110.268632-110.268631z m-369.178947 56.266105h369.178947c29.857684 0 54.002526 24.144842 54.002527 54.002526v178.391579c0 19.348211-10.24 37.187368-26.947369 46.780632l-161.68421 93.291789a28.133053 28.133053 0 0 0 0 48.720842l161.68421 93.345685c16.707368 9.647158 26.947368 27.486316 26.947369 46.780631v178.391579c0 29.857684-24.144842 54.002526-54.002527 54.002526h-369.178947a54.002526 54.002526 0 0 1-54.002526-54.002526v-178.391579c0-19.294316 10.293895-37.187368 27.001263-46.780631l161.68421-93.345685a28.133053 28.133053 0 0 0 0-48.720842l-161.68421-93.237895a54.002526 54.002526 0 0 1-26.947369-46.780631V162.977684c0-29.857684 24.144842-54.002526 53.948632-54.002526z" p-id="4445" fill="#1296db"></path></svg>